<?xml version="1.0" standalone="no"?>
<!DOCTYPE svg PUBLIC "-//W3C//DTD SVG 1.1//EN" "http://www.w3.org/Graphics/SVG/1.1/DTD/svg11.dtd" >
<svg xmlns="http://www.w3.org/2000/svg" xmlns:xlink="http://www.w3.org/1999/xlink" version="1.1">
<metadata>
Created by FontForge 20190801 at Fri Nov  8 15:12:13 2013
 By www-data
Copyright (c) Cadbury UK Limited 2013. Designed and digitized by Nick Cooke/G-Type. All rights reserved.
</metadata>
<defs>
<font id="DairyMilkFontMedium" horiz-adv-x="400" >
  <font-face 
    font-family="DairyMilkFontMedium"
    font-weight="500"
    font-stretch="normal"
    units-per-em="1000"
    panose-1="2 14 6 0 5 0 0 0 0 4"
    ascent="750"
    descent="-250"
    x-height="518"
    cap-height="709"
    bbox="-119.789 -232 1464 942.684"
    underline-thickness="50"
    underline-position="-100"
    unicode-range="U+0020-FB02"
  />
<missing-glyph horiz-adv-x="225" 
 />
    <glyph glyph-name="fi" unicode="fi" horiz-adv-x="534" 
d="M4 462l14 44q3 11 14 11h40q13 110 74 162t149 50q104 -2 160 -51q22 -19 4 -77q-13 -39 -34 -22q-63 51 -117 56t-90 -45q-16 -25 -19 -73q51 -1 120 1t87 2q65 0 65 -69v-200q0 -10 -2 -72t-2 -64q0 -41 32 -41q9 0 20.5 5.5t16.5 5.5t10 -4t5 -10q0 -22 -26.5 -46.5
t-85.5 -24.5q-42 0 -70.5 22t-28.5 60v33t0.5 77.5t0.5 86.5q0 82 -9 156q-21 -1 -134 -1q0 -272 7 -355q1 -13 7.5 -28.5t6.5 -22.5q0 -11 -26 -19.5t-52 -8.5q-28 0 -52 16t-24 56q0 26 0.5 73.5t1.5 113t1 101.5q1 40 -9 57t-44 28q-15 5 -11 17z" />
    <glyph glyph-name="fl" unicode="fl" horiz-adv-x="534" 
d="M72 517q14 111 74.5 162t178.5 51q146 0 146 -75v-200q0 -5 -1 -90.5t-1.5 -166t-0.5 -83.5q3 -41 31 -41q9 0 21 5.5t17 5.5t9.5 -4t4.5 -10q0 -22 -26 -46.5t-85 -24.5q-43 0 -71 22t-28 60v401q0 80 -8 146q-16 5 -37 5q-45 0 -70.5 -34t-26.5 -83l90 3q11 0 14 -2.5
t2 -12.5q-4 -55 -46 -65q-21 -6 -61 -6v-133q0 -136 7 -222q1 -13 7.5 -28.5t6.5 -22.5q0 -11 -26 -19.5t-52 -8.5q-28 0 -52 16t-24 56q0 26 0.5 73.5t1.5 113t1 101.5q1 40 -9 57t-44 28q-15 5 -11 17l14 44q3 11 14 11h40z" />
    <glyph glyph-name=".notdef" horiz-adv-x="225" 
 />
    <glyph glyph-name=".null" horiz-adv-x="0" 
 />
    <glyph glyph-name="nonmarkingreturn" horiz-adv-x="333" 
 />
    <glyph glyph-name="space" unicode=" " horiz-adv-x="225" 
 />
    <glyph glyph-name="exclam" unicode="!" horiz-adv-x="333" 
d="M95 66q0 32 22.5 55t54.5 23t55 -23t23 -55t-23 -54.5t-55 -22.5t-54.5 22.5t-22.5 54.5zM118 239q0 93 -12.5 240.5t-21.5 199.5q-2 10 14.5 17.5t34.5 10t32 2.5q36 0 60.5 -15.5t23.5 -45.5q-1 -93 -20 -233t-21 -168q-1 -4 1.5 -17t2.5 -18q0 -16 -37 -16
q-23 0 -40 11.5t-17 31.5z" />
    <glyph glyph-name="dollar" unicode="$" horiz-adv-x="575" 
d="M337 754q0 -5 -0.5 -17t-0.5 -18q106 -6 155 -45q35 -29 26 -97q-3 -23 -13 -31.5t-27 6.5q-54 60 -142 67q0 -129 -1 -201l22 -5q94 -24 137 -67.5t43 -136.5q0 -84 -53 -141t-151 -73v-49q0 -43 -50 -45q-7 -1 -18 1t-20.5 7.5t-8.5 13.5l8 66q-125 3 -177 45
q-34 28 -25 98q3 23 13 31.5t27 -6.5q33 -38 77 -53t79 -15h13q0 6 0.5 19.5t0.5 20.5v162l-22 6q-94 25 -138 74t-44 150q0 80 50.5 133.5t153.5 63.5q0 8 0.5 23.5t0.5 21.5q0 24 16 37t38 15q35 0 35 -20q0 -6 -2 -21.5t-2 -19.5zM180 530q0 -35 16.5 -54.5t54.5 -33.5
v170q-71 -19 -71 -82zM403 184q0 31 -16.5 49.5t-53.5 32.5q0 -113 -1 -165q71 23 71 83z" />
    <glyph glyph-name="percent" unicode="%" horiz-adv-x="1055" 
d="M889 214q0 165 -75 165t-75 -165q0 -164 75 -164t75 164zM814 440q196 0 196 -226q0 -225 -196 -225q-197 0 -197 225q0 226 197 226zM317 495q0 165 -75 165t-75 -165q0 -164 75 -164t75 164zM242 721q196 0 196 -226q0 -225 -196 -225q-197 0 -197 225q0 226 197 226z
M417 -18q-3 -5 -7.5 -20.5t-5.5 -18.5q-8 -20 -39 -5q-20 10 -29.5 28.5t-0.5 40.5q29 70 124.5 296t113.5 269q36 86 66 196q7 10 24 8.5t28 -7.5q45 -22 29 -60q-292 -700 -303 -727z" />
    <glyph glyph-name="ampersand" unicode="&#x26;" horiz-adv-x="660" 
d="M488 588q0 -94 -116 -178q39 -54 133 -174q12 40 13 75q1 27 -9.5 47.5t-11.5 27.5q-3 16 20 23t44 3q49 -10 53 -48q11 -107 -40 -214q2 -3 15 -19.5t20 -24.5q8 -11 22 -20t18 -15q6 -8 -10 -29.5t-38 -36.5q-14 -9 -29.5 -14t-37 1.5t-36.5 29.5l-13 18
q-71 -51 -171 -51q-121 0 -196 60.5t-78 158.5q-1 34 12 63t42 54t53 40t66 39l-27 36q-47 61 -55 124.5t35.5 109.5t137.5 46q184 0 184 -132zM427 125q-58 82 -164 216q-89 -55 -89 -97q0 -53 51.5 -97t116.5 -44q47 0 85 22zM290 527l36 -53q57 49 57 105q0 52 -57 55
q-46 2 -56 -30.5t20 -76.5z" />
    <glyph glyph-name="parenleft" unicode="(" horiz-adv-x="324" 
d="M166 266q0 -133 30 -241.5t69 -172.5q9 -11 6.5 -21t-23.5 -3q-103 32 -161 151.5t-58 286.5t58 286.5t161 151.5q21 7 23.5 -3t-6.5 -21q-39 -64 -69 -172.5t-30 -241.5z" />
    <glyph glyph-name="parenright" unicode=")" horiz-adv-x="324" 
d="M158 266q0 133 -30 241.5t-69 172.5q-9 11 -6.5 21t23.5 3q103 -32 161 -151.5t58 -286.5t-58 -286.5t-161 -151.5q-21 -7 -23.5 3t6.5 21q39 64 69 172.5t30 241.5z" />
    <glyph glyph-name="comma" unicode="," horiz-adv-x="288" 
d="M129 -84q31 38 37 74q-30 2 -48.5 24.5t-16.5 52.5q2 33 25 55.5t58 22.5q36 0 54.5 -21t18.5 -56q0 -103 -81 -175q-25 -22 -45 -7q-14 13 -2 30z" />
    <glyph glyph-name="hyphen" unicode="-" horiz-adv-x="362" 
d="M165 249q-52 0 -92 -4q-21 -2 -31.5 5.5t-9.5 34.5q3 31 10 48q5 15 16.5 19t35.5 4q10 0 51 -2t70 -2q28 0 85 3q15 1 23 -6t8 -29q0 -36 -8 -54q-7 -20 -54 -20q-20 0 -56 1.5t-48 1.5z" />
    <glyph glyph-name="period" unicode="." horiz-adv-x="286" 
d="M255 67q-2 -32 -26.5 -54.5t-56.5 -22.5t-52.5 22.5t-18.5 54.5t26.5 55t56.5 23t53 -23t18 -55z" />
    <glyph glyph-name="slash" unicode="/" horiz-adv-x="275" 
d="M99 -52q-2 -5 -3 -21t-2 -20q-4 -20 -38 -12q-21 6 -34 22.5t-8 39.5q12 60 37.5 182t53.5 253t35 165q19 95 27 205q1 11 21.5 13t29.5 -2q48 -12 40 -54q-110 -529 -159 -771z" />
    <glyph glyph-name="zero" unicode="0" horiz-adv-x="624" 
d="M450 354q0 277 -138 277q-41 0 -69 -21.5t-42.5 -62t-20.5 -87t-6 -106.5q0 -82 10 -139t42 -97t86 -40q138 0 138 276zM312 720q152 0 221.5 -97.5t69.5 -268.5q0 -170 -69.5 -267.5t-221.5 -97.5t-221.5 97.5t-69.5 267.5q0 171 69.5 268.5t221.5 97.5z" />
    <glyph glyph-name="one" unicode="1" horiz-adv-x="420" 
d="M22 581q65 27 132.5 61.5t102 50.5t55.5 16q32 0 44 -14t12 -47q-5 -482 -5 -567q0 -6 3 -26.5t3 -28.5q0 -26 -73 -26q-77 0 -77 69q0 34 2.5 141t2.5 191q0 79 -6 157q-33 -21 -60 -33q-9 -4 -25 -12t-23.5 -11.5t-19 -8t-18 -6t-14 -1.5t-13.5 3q-29 12 -38 63
q-4 22 15 29z" />
    <glyph glyph-name="two" unicode="2" horiz-adv-x="573" 
d="M76 0q-16 0 -23.5 4.5t-9.5 20.5q-4 31 2 50t15 27t38 30q146 108 213 190.5t67 167.5q0 66 -37 97t-101 29q-84 -2 -148 -65q-18 -14 -27.5 -5.5t-12.5 31.5q-9 68 26 97q58 46 194 46q125 0 187 -61t62 -156q0 -110 -77 -200t-245 -202q213 3 320 27q12 2 15 -3t3 -18
q0 -69 -14 -86q-9 -10 -28 -15t-34.5 -5.5t-55.5 -0.5h-329z" />
    <glyph glyph-name="three" unicode="3" horiz-adv-x="575" 
d="M371 371q84 -14 124.5 -57t40.5 -119q0 -98 -74 -152t-203 -54q-133 0 -197 45q-31 22 -21 98q3 23 13.5 32t26.5 -6q57 -65 157 -65q70 0 107.5 27t37.5 78q0 70 -61 99.5t-143 19.5q-22 -3 -26 0.5t-7 24.5q-12 85 42 83q187 -5 187 97q0 100 -134 96q-89 -3 -149 -67
q-17 -14 -27 -5.5t-13 31.5q-9 68 26 97q58 46 194 46q250 0 250 -191q0 -70 -41 -110.5t-110 -47.5z" />
    <glyph glyph-name="four" unicode="4" horiz-adv-x="614" 
d="M75 179q-13 0 -26.5 23.5t-21.5 51.5q-6 25 11 44q15 17 68.5 84.5t123.5 157t95 120.5q9 16 42 32.5t55 16.5q33 0 48.5 -14.5t15.5 -46.5q-4 -289 -5 -369q53 4 90 11q12 2 15 -2.5t3 -15.5q0 -60 -14 -75q-18 -18 -94 -18v-98q0 -6 3 -26.5t3 -28.5q0 -26 -60 -26
q-36 0 -63 18.5t-27 50.5q0 30 2 110q-146 2 -264 0zM342 401q0 58 -4 124q-59 -83 -185 -254q106 -2 188 1q0 18 0.5 61t0.5 68z" />
    <glyph glyph-name="five" unicode="5" horiz-adv-x="556" 
d="M365 597q-55 0 -144 13q-6 -92 -21 -174q50 4 69 4q133 0 193.5 -56t58.5 -156q-3 -114 -87.5 -176.5t-204.5 -62.5q-105 0 -153 35q-35 27 -26 96q3 23 12.5 32t27.5 -4q58 -55 150 -55q64 0 101 33t37 99q0 131 -173 131q-44 0 -98 -9q-31 -6 -39.5 7t-4.5 40
q21 155 31 272q1 17 4 26t7.5 12.5t10.5 4t15 -0.5q75 -3 170 -3q127 0 178 4q12 1 15 -4t3 -16q0 -55 -15 -73q-8 -9 -24 -13.5t-30.5 -5t-48.5 -0.5h-14z" />
    <glyph glyph-name="six" unicode="6" horiz-adv-x="572" 
d="M325 629q-72 0 -104.5 -54.5t-38.5 -158.5q76 32 146 32q95 0 156.5 -56.5t61.5 -157.5q0 -118 -68.5 -181.5t-184.5 -63.5q-267 0 -267 360q0 179 75 275t219 96q120 0 184 -57q21 -18 21 -50q0 -22 -11 -53q-21 -52 -45 -15q-28 46 -61 65t-83 19zM289 354
q-54 0 -108 -34q2 -126 28.5 -182.5t85.5 -56.5t83.5 37.5t24.5 109.5q0 63 -32 94.5t-82 31.5z" />
    <glyph glyph-name="seven" unicode="7" horiz-adv-x="548" 
d="M143 112q18 59 56.5 130.5t94 171.5t97.5 192q-128 -16 -206 -16q-87 0 -107 8q-11 4 -18 12q-16 18 -16 78q0 8 1 12t5 6.5t13 2.5q55 -4 190 -4q137 0 245 4q21 1 30 -6.5t9 -33.5q0 -34 -13 -60q-182 -354 -245 -546q-1 -3 -7 -23.5t-10 -28.5q-11 -24 -66 1
q-31 15 -46.5 42.5t-6.5 57.5z" />
    <glyph glyph-name="eight" unicode="8" horiz-adv-x="628" 
d="M314 342q-127 0 -127 -144q0 -133 127 -133t127 133q0 144 -127 144zM314 646q-93 0 -93 -109q0 -112 93 -114q93 2 93 114q0 109 -93 109zM403 387q86 -13 136.5 -61.5t50.5 -128.5q0 -103 -72 -155.5t-204 -52.5t-204 52.5t-72 155.5q0 80 50.5 128.5t136.5 61.5
q-145 34 -145 165q0 84 65.5 126t168.5 42t168.5 -42t65.5 -126q0 -131 -145 -165z" />
    <glyph glyph-name="nine" unicode="9" horiz-adv-x="572" 
d="M247 80q72 0 104 54t38 159q-76 -32 -145 -32q-95 0 -156.5 56.5t-61.5 157.5q0 118 68.5 181.5t184.5 63.5q267 0 267 -360q0 -179 -75 -275t-219 -96q-120 0 -184 57q-21 18 -21 50q0 22 11 53q21 52 45 15q28 -46 61 -65t83 -19zM283 355q54 0 108 33
q-3 126 -29.5 183t-84.5 57q-59 0 -83.5 -37.5t-24.5 -109.5q0 -63 32 -94.5t82 -31.5z" />
    <glyph glyph-name="colon" unicode=":" horiz-adv-x="286" 
d="M100 66q0 32 22.5 55t54.5 23t55 -23t23 -55t-23 -54.5t-55 -22.5t-54.5 22.5t-22.5 54.5zM100 447q0 32 22.5 55t54.5 23t55 -23t23 -55t-23 -54.5t-55 -22.5t-54.5 22.5t-22.5 54.5z" />
    <glyph glyph-name="semicolon" unicode=";" horiz-adv-x="288" 
d="M129 -84q31 38 37 74q-30 2 -48.5 24.5t-16.5 52.5q2 33 25 55.5t58 22.5q36 0 54.5 -21t18.5 -56q0 -103 -81 -175q-25 -22 -45 -7q-14 13 -2 30zM100 447q0 32 22.5 55t54.5 23t55 -23t23 -55t-23 -54.5t-55 -22.5t-54.5 22.5t-22.5 54.5z" />
    <glyph glyph-name="question" unicode="?" horiz-adv-x="514" 
d="M291 286q-18 -9 -24.5 -25t-5 -30t-4.5 -24.5t-23 -10.5q-23 0 -43 16.5t-20 44.5q0 30 18 54t44.5 41.5t52.5 35.5t44 44.5t18 59.5q0 59 -43 95t-101 36q-42 0 -89 -39q-14 -10 -22.5 -1.5t-10.5 28.5q-9 55 21 76q34 23 90 23q67 0 131 -23t111 -74.5t47 -121.5
q0 -61 -39 -106t-152 -99zM146 66q0 32 22.5 55t54.5 23t55 -23t23 -55t-23 -54.5t-55 -22.5t-54.5 22.5t-22.5 54.5z" />
    <glyph glyph-name="at" unicode="@" horiz-adv-x="748" 
d="M540 115q30 1 39 -25t-7 -49q-13 -21 -72 -36.5t-119 -15.5q-174 0 -263 99.5t-89 265.5q0 167 89 266.5t263 99.5q94 0 162.5 -27t105 -73.5t53.5 -100t17 -115.5q0 -120 -46 -171t-118 -51q-39 0 -63.5 18.5t-31.5 41.5q-28 -60 -104 -60q-128 0 -128 174
q0 175 130 175q59 0 87 -41v15q0 13 46 13q53 0 50 -38q-9 -95 -9 -148q0 -38 8.5 -55.5t32.5 -17.5q51 0 58 95q4 60 -7 110t-39 90.5t-80 63.5t-124 23q-132 0 -193.5 -80.5t-61.5 -206.5t61.5 -206t193.5 -80q41 0 74 11.5t54 23.5t31 12zM381 260q29 0 41 21t12 73
q0 54 -12 75.5t-41 21.5q-31 0 -40.5 -23t-9.5 -72t10 -72.5t40 -23.5z" />
    <glyph glyph-name="A" unicode="A" horiz-adv-x="697" 
d="M328 708q46 0 77.5 -14t55 -47t38.5 -70.5t34 -101.5q3 -11 19.5 -72.5t28.5 -103.5t30 -98t32 -89q10 -23 29 -42.5t19 -28.5q0 -17 -23 -29t-73 -12q-90 0 -117 112q-16 58 -22 85q-63 3 -125 3q-35 0 -105 -2q-26 -80 -37 -106q-21 -49 -46.5 -70.5t-73.5 -21.5
q-26 0 -44.5 7t-17.5 25q0 13 15 26q9 9 16.5 17.5t12 14t10 17t8 17t10.5 24t12 28.5q12 28 76 217t107 284q13 31 54 31zM341 567q-9 -29 -85 -273h75q67 0 101 1l-5 23q-50 201 -76 249q-8 8 -10 0z" />
    <glyph glyph-name="B" unicode="B" horiz-adv-x="640" 
d="M59 703q70 10 247 10q73 0 128.5 -15t93 -54t37.5 -100q0 -126 -157 -156q200 -27 200 -185q0 -101 -90.5 -152t-234.5 -51q-109 0 -170 11q-32 5 -45 16.5t-13 45.5q0 31 2.5 150.5t2.5 160.5q0 149 -12 297q-1 21 11 22zM200 338q0 -130 -1 -152q-2 -61 21 -86.5
t77 -25.5q156 0 156 130q0 141 -161 141q-32 0 -92 -7zM198 637q2 -62 2 -220q25 -1 69 -1q144 1 144 119q0 106 -133 106q-49 0 -82 -4z" />
    <glyph glyph-name="C" unicode="C" horiz-adv-x="640" 
d="M198 355q0 -131 52.5 -200t148.5 -69q87 0 161 48q45 28 51 -16q5 -37 -5 -58t-37 -34q-78 -37 -193 -37q-153 0 -243 87t-90 278q0 185 95 275.5t244 90.5q158 0 210 -66q15 -18 18 -44t-6 -43q-26 -51 -76 -1q-63 63 -140 63q-90 0 -140 -68.5t-50 -205.5z" />
    <glyph glyph-name="D" unicode="D" horiz-adv-x="739" 
d="M60 357q0 65 -2 127.5t-4 97.5t-4 68l-2 32q-1 8 0.5 13t9 9.5t21.5 4.5q31 0 116 2t101 2q56 0 109.5 -10.5t107 -36.5t93.5 -65.5t65 -102t25 -141.5t-25 -142t-65 -102.5t-93.5 -65.5t-107 -36.5t-109.5 -10.5q-16 0 -101 2t-116 2q-21 0 -26.5 7t-4.5 20q0 3 1.5 23
t3 47t3.5 64.5t3 88t1 103.5zM539 357q0 70 -18.5 122.5t-46.5 82.5t-67.5 48t-74 24t-73.5 6q-10 0 -29.5 -1t-26.5 -1q-3 0 -5.5 -0.5t-3 -2.5t-0.5 -3.5v-4.5v-5q0 -6 3 -109.5t3 -146.5q0 -42 -3 -150.5t-3 -114.5v-5v-4.5t0.5 -3.5t3 -2.5t5.5 -0.5q7 0 26.5 -1
t29.5 -1q280 0 280 274z" />
    <glyph glyph-name="E" unicode="E" horiz-adv-x="592" 
d="M104 709q21 0 115 -1t169 -0.5t116 2.5q21 1 28.5 -6.5t7.5 -31.5q0 -37 -15 -53q-11 -14 -37 -18t-79 -4q-93 0 -210 18q0 -32 0.5 -107.5t0.5 -105.5q177 -2 257 11q20 3 29 -4.5t9 -30.5q0 -47 -23.5 -60.5t-84.5 -13.5q-43 0 -188 11q-1 -44 -3.5 -131t-2.5 -97
q227 2 354 24q12 2 15 -2.5t3 -15.5q0 -60 -14 -75q-7 -7 -16 -11t-29 -5.5t-30 -1.5h-43h-323q-39 0 -50.5 12.5t-8.5 51.5q9 119 9 293q0 163 -10 291q-3 31 7.5 46t46.5 15z" />
    <glyph glyph-name="F" unicode="F" horiz-adv-x="561" 
d="M199 319v-238q0 -6 3 -26.5t3 -28.5q0 -26 -60 -26q-36 0 -63 18.5t-27 50.5q0 34 2.5 141t2.5 191q0 107 -10 247q-3 31 7.5 46t46.5 15q22 0 112.5 -1t163 -0.5t113.5 2.5q21 1 28.5 -6.5t7.5 -31.5q0 -37 -15 -53q-11 -14 -37 -18t-79 -4q-82 0 -199 18
q0 -32 0.5 -105.5t0.5 -103.5q169 -1 248 11q20 3 29 -4.5t9 -30.5q0 -47 -23.5 -60.5t-84.5 -13.5q-34 0 -179 11z" />
    <glyph glyph-name="G" unicode="G" horiz-adv-x="684" 
d="M388 629q-90 0 -140 -68.5t-50 -205.5q0 -128 44.5 -198.5t130.5 -70.5q69 0 99.5 51.5t27.5 122.5q-58 0 -124 -3q-12 -1 -15 3.5t-3 14.5q0 56 12 70q17 20 75 20h136q35 0 50.5 -15.5t15.5 -59.5q0 -150 -74 -225.5t-210 -75.5q-149 0 -234.5 92.5t-85.5 272.5
q0 185 95 275.5t244 90.5q158 0 210 -66q15 -18 18 -44t-6 -43q-26 -51 -76 -1q-63 63 -140 63z" />
    <glyph glyph-name="H" unicode="H" horiz-adv-x="721" 
d="M655 84q0 -5 3 -27.5t3 -30.5q0 -26 -60 -26q-36 0 -63 18.5t-27 50.5q0 35 2 117t2 132q-102 4 -153 4t-153 -4q-1 -70 -1 -234q0 -5 3 -27.5t3 -30.5q0 -26 -60 -26q-36 0 -63 18.5t-27 50.5q0 34 2.5 141t2.5 191q0 152 -21 278q-2 10 14.5 17.5t34.5 10t32 2.5
q36 0 60 -15.5t24 -45.5l-3 -229q75 -3 152 -3q102 0 154 3q-1 130 -21 260q-2 10 14.5 17.5t34.5 10t32 2.5q36 0 60 -15.5t24 -45.5q-5 -483 -5 -564z" />
    <glyph glyph-name="I" unicode="I" horiz-adv-x="274" 
d="M208 81q0 -6 3 -26.5t3 -28.5q0 -26 -60 -26q-36 0 -63 18.5t-27 50.5q0 34 2.5 141t2.5 191q0 152 -21 278q-2 10 14.5 17.5t34.5 10t32 2.5q36 0 60 -15.5t24 -45.5q-5 -483 -5 -567z" />
    <glyph glyph-name="J" unicode="J" horiz-adv-x="456" 
d="M173 -11q-116 0 -154 45q-11 14 -13 36t5 39q13 34 52 5q37 -27 86 -27q33 0 55.5 12t35 30.5t19 57t8 74t1.5 98.5q0 196 -21 320q-2 10 14.5 17.5t34.5 10t32 2.5q36 0 60 -15.5t24 -45.5q0 -42 -2 -157t-2 -177q0 -176 -48.5 -250.5t-186.5 -74.5z" />
    <glyph glyph-name="K" unicode="K" horiz-adv-x="666" 
d="M208 270v-189q0 -6 3 -26.5t3 -28.5q0 -26 -60 -26q-36 0 -63 18.5t-27 50.5q0 34 2.5 141t2.5 191q0 152 -21 278q-2 10 14.5 17.5t34.5 10t32 2.5q36 0 60 -15.5t24 -45.5l-3 -245q33 26 64 57t53.5 57t45.5 56.5t35 48t26 40t16 24.5q15 23 78 23q36 0 50.5 -9.5
t14.5 -33.5q0 -38 -109.5 -141.5t-179.5 -144.5q1 -2 20 -34.5t25.5 -43.5t27.5 -42t33.5 -45.5t34 -38t39.5 -34.5t40.5 -20t44.5 -9q16 0 39.5 8.5t27.5 8.5q11 0 18.5 -7t7.5 -17q0 -35 -48 -70.5t-128 -35.5q-124 0 -278 270z" />
    <glyph glyph-name="L" unicode="L" horiz-adv-x="613" 
d="M213 648q-5 -477 -5 -561q232 2 361 24q12 2 15 -2.5t3 -15.5q0 -60 -14 -75q-7 -7 -16 -11t-29 -5.5t-30 -1.5h-43h-325q-47 0 -60.5 11.5t-10.5 48.5q10 117 10 341q0 152 -21 278q-2 10 14.5 17.5t34.5 10t32 2.5q36 0 60 -15.5t24 -45.5z" />
    <glyph glyph-name="M" unicode="M" horiz-adv-x="809" 
d="M48 681q0 28 89 28q69 0 96 -45q5 -8 46.5 -93.5t80.5 -167t41 -83.5q7 17 74 152.5t87 174.5q32 62 128 62q23 0 32.5 -1t18 -7t8.5 -19q0 -5 -3.5 -55t-3.5 -57q0 -3 -2 -98.5t-3.5 -179.5t0.5 -160q1 -31 6.5 -64.5t5.5 -38.5q0 -29 -65 -29q-37 0 -61 19t-24 59
q0 18 2 229.5t2 215.5q-27 -45 -88 -173.5t-87 -202.5q-11 -32 -38 -32q-24 0 -40 40q-7 18 -90 190t-88 177q0 -14 2 -243t2 -232q0 -47 -87 -47q-42 0 -42 22q0 4 2 15t2 20q0 8 2.5 222.5t2.5 227.5q0 9 -4 84t-4 90z" />
    <glyph glyph-name="N" unicode="N" horiz-adv-x="699" 
d="M129 709q33 0 52 -11.5t41 -41.5q9 -13 123 -177t172 -245q0 53 -1 159t-2 186t-1 83q0 47 84 47q42 0 42 -22q0 -4 -2 -15.5t-2 -20.5q0 -8 -2.5 -224.5t-2.5 -229.5q0 -8 4 -79t4 -86q0 -32 -81 -32q-28 0 -43 7.5t-28 26.5q-3 4 -134 192.5t-183 260.5q0 -46 1 -157.5
t2 -195.5t1 -87q0 -47 -84 -47q-42 0 -42 22q0 4 2 15.5t2 20.5q0 8 2.5 224.5t2.5 229.5q0 8 -4 79t-4 86q0 32 81 32z" />
    <glyph glyph-name="O" unicode="O" horiz-adv-x="742" 
d="M544 354q0 277 -173 277q-51 0 -86 -21.5t-53.5 -62t-26 -87t-7.5 -106.5t7.5 -106.5t26 -86.5t53.5 -61.5t86 -21.5q173 0 173 276zM371 720q171 0 249.5 -97.5t78.5 -268.5q0 -170 -78.5 -267.5t-249.5 -97.5t-249.5 97.5t-78.5 267.5q0 171 78.5 268.5t249.5 97.5z
" />
    <glyph glyph-name="P" unicode="P" horiz-adv-x="648" 
d="M50 642q-2 31 9 45t45 18q65 8 187 8q151 0 233 -46t82 -156q0 -59 -26.5 -103t-72 -69t-101 -37t-119.5 -12q-58 0 -88 2v-211q0 -6 3 -26.5t3 -28.5q0 -26 -60 -26q-36 0 -63 18.5t-27 50.5q0 34 2.5 141t2.5 191q0 98 -10 241zM292 636q-39 0 -91 -5l-2 -254
q40 -5 82 -5q84 1 127.5 37.5t42.5 105.5q-3 121 -159 121z" />
    <glyph glyph-name="Q" unicode="Q" horiz-adv-x="742" 
d="M371 720q171 0 249.5 -97.5t78.5 -268.5q0 -314 -246 -358q118 -72 250 -106q31 -8 15 -34q-15 -26 -36 -37.5t-56 -11.5q-36 0 -75.5 14.5t-88.5 48.5t-77 55.5t-84 68.5q-258 37 -258 360q0 171 78.5 268.5t249.5 97.5zM544 354q0 277 -173 277q-51 0 -86 -21.5
t-53.5 -62t-26 -87t-7.5 -106.5t7.5 -106.5t26 -86.5t53.5 -61.5t86 -21.5q173 0 173 276z" />
    <glyph glyph-name="R" unicode="R" horiz-adv-x="667" 
d="M201 629l-2 -237q40 -4 79 -4q83 1 124 33.5t39 97.5q-3 115 -158 115q-47 0 -82 -5zM283 713q68 0 122 -10.5t98.5 -32.5t68.5 -61.5t24 -93.5q0 -73 -47.5 -119t-130.5 -66q104 -178 205 -247q24 -17 28.5 -30.5t-10.5 -30.5q-22 -22 -66 -22q-30 0 -59 13t-50 30
t-48 51t-43 57.5t-45.5 70t-44.5 69.5q-10 15 -16 18.5t-21 4.5l-49 3v-236q0 -6 3 -26.5t3 -28.5q0 -26 -60 -26q-36 0 -63 18.5t-27 50.5q0 34 2.5 141t2.5 191q0 98 -10 241q-2 31 9 45t45 18q65 8 179 8z" />
    <glyph glyph-name="S" unicode="S" horiz-adv-x="575" 
d="M245 89q69 0 113.5 22t44.5 73q0 32 -22.5 52.5t-47.5 29.5t-98 29q-4 1 -6 2q-94 25 -138 74t-44 150q0 89 62 144t188 55q166 0 212 -65q22 -32 5 -84q-13 -40 -53 -6q-63 55 -147 55q-61 0 -97.5 -22t-36.5 -68q0 -21 6.5 -36.5t17.5 -26t31.5 -19t43 -15t57.5 -15.5
q13 -3 20 -5q94 -24 137 -67.5t43 -136.5q0 -100 -73 -160t-207 -60q-69 0 -124 15.5t-78 43.5q-25 31 -10 87q7 23 24 23.5t36 -18.5q64 -51 141 -51z" />
    <glyph glyph-name="T" unicode="T" horiz-adv-x="656" 
d="M141 708q21 0 122 -1t163 -1q127 0 182 4q21 2 28.5 -6t7.5 -32q0 -36 -16 -55q-19 -22 -116 -22q-7 0 -115 2q-4 -338 -4 -516q0 -6 3 -26.5t3 -28.5q0 -26 -60 -26q-36 0 -63 18.5t-27 50.5q0 34 2.5 141t2.5 191q0 113 -5 200q-127 0 -196 -10q-33 -5 -41 4t-4 42
q4 30 18 47q12 15 38 19.5t77 4.5z" />
    <glyph glyph-name="U" unicode="U" horiz-adv-x="683" 
d="M197 325q0 -118 33 -171t124 -53q94 0 129 57t35 199q0 227 -14 313q-2 16 11 25t27.5 11.5t32.5 2.5q35 0 49.5 -22.5t14.5 -76.5q0 -48 -1.5 -117.5t-1.5 -110.5q0 -72 -4.5 -121t-21 -102.5t-46 -85t-83.5 -52.5t-131 -21q-108 0 -173 35t-95 110q-25 65 -25 237
q0 185 -15 297q-2 15 24.5 22.5t50.5 7.5q36 0 60 -15.5t24 -45.5q0 -44 -2 -153t-2 -170z" />
    <glyph glyph-name="V" unicode="V" horiz-adv-x="688" 
d="M365 0q-84 0 -124 53t-76 180q-2 8 -25.5 96.5t-43.5 156.5t-38 111q-9 23 -27.5 42.5t-18.5 28.5q0 17 22.5 29t70.5 12q88 0 115 -112q19 -76 49 -206q47 -201 74 -250q2 -3 5 -3t4 3q11 35 47 155.5t63 208.5t37 112q20 49 45 70.5t71 21.5q25 0 43 -7t17 -25
q0 -12 -14 -26q-9 -9 -16 -17.5t-11.5 -14t-10 -17.5t-8 -17t-10 -24t-11.5 -28q-12 -30 -74 -218.5t-103 -283.5q-13 -31 -52 -31z" />
    <glyph glyph-name="W" unicode="W" horiz-adv-x="1117" 
d="M551 709q53 0 79.5 -27.5t39.5 -84.5q5 -21 18 -90t23 -116q48 -214 68 -250q1 -3 4 -3t4 3q11 38 45 156t60.5 207t36.5 113q19 49 43 70.5t68 21.5q25 0 45 -7.5t19 -24.5q0 -10 -13 -26q-9 -9 -16 -17.5t-11 -14t-9.5 -17.5t-7.5 -16.5t-10 -24t-11 -28.5
q-11 -28 -70.5 -217t-99.5 -285q-13 -31 -52 -31q-81 0 -119.5 53t-73.5 180q-7 27 -27 111t-29 120q-5 18 -10 0q-7 -24 -35 -122.5t-52.5 -174t-49.5 -136.5q-13 -31 -50 -31q-82 0 -123.5 54t-75.5 179q-1 4 -24 95.5t-42.5 158.5t-36.5 110q-8 23 -26 42.5t-18 28.5
q0 16 24.5 28.5t71.5 12.5q84 0 110 -112q14 -57 47 -206q45 -201 72 -250q1 -3 4 -3t4 3q19 63 68 253t59 223q17 54 33.5 73t45.5 19z" />
    <glyph glyph-name="X" unicode="X" horiz-adv-x="630" 
d="M97 124q74 103 144 211q-162 257 -222 323q-11 15 -8.5 24t12.5 14q27 13 68 13q53 0 77.5 -13t53.5 -60q2 -3 105 -174q57 99 114 182q25 38 48.5 51.5t63.5 13.5q34 0 53 -12q8 -6 7.5 -15t-7.5 -15q-34 -30 -73 -82q-39 -53 -145 -211q155 -248 223 -323
q11 -15 8.5 -24t-12.5 -14q-27 -13 -68 -13q-53 0 -77.5 13t-53.5 60q-20 30 -106 173q-69 -117 -113 -181q-25 -38 -48.5 -51.5t-63.5 -13.5q-34 0 -53 12q-8 6 -7.5 15t7.5 15q34 30 73 82z" />
    <glyph glyph-name="Y" unicode="Y" horiz-adv-x="629" 
d="M381 81q0 -6 3 -26.5t3 -28.5q0 -26 -60 -26q-36 0 -63 18.5t-27 50.5q0 31 1.5 97.5t1.5 93.5q-39 28 -69 88t-61.5 143.5t-57.5 129.5q-6 11 -26 28t-20 31q0 13 21 21t48 8q85 0 120 -62q23 -42 67 -157.5t70 -150.5q28 37 69 147t69 161q20 36 43 49t60 13
q20 0 35 -6.5t15 -16.5q0 -9 -4 -15t-11 -11t-21 -21t-29 -40q-27 -43 -57.5 -120.5t-58.5 -135.5t-61 -82v-53v-66.5v-60.5z" />
    <glyph glyph-name="Z" unicode="Z" horiz-adv-x="599" 
d="M54 4q-30 0 -38 34q-7 37 -3.5 51t19.5 32q98 118 187 254q105 161 150 233q-101 -11 -204 -11q-55 0 -82.5 4t-40.5 18q-15 16 -15 54q0 23 8 30.5t30 6.5q43 -2 129.5 -2.5t195.5 0.5t130 1q31 0 38 -36q10 -52 -16 -82q-79 -90 -172 -233q-126 -194 -164 -256
q110 12 236 12q55 0 82.5 -4t40.5 -18q15 -16 15 -54q0 -23 -8 -30.5t-30 -6.5q-58 3 -488 3z" />
    <glyph glyph-name="bracketleft" unicode="[" horiz-adv-x="342" 
d="M204 620q-5 -448 -5 -707q41 0 85 3h16t11 -5.5t4 -17.5v-52q0 -15 -19 -15q-11 0 -71.5 0.5t-80.5 0.5h-11q-42 0 -55.5 16t-13.5 53q0 34 2.5 153.5t2.5 203.5q0 308 -10 424q-1 17 9 23.5t36 6.5q40 -1 110 -1q15 0 42 0.5t40 0.5q19 0 19 -15v-52q0 -12 -4 -17.5
t-11 -5.5h-16z" />
    <glyph glyph-name="backslash" unicode="\" horiz-adv-x="275" 
d="M102 722q49 -242 159 -771q8 -42 -40 -54q-9 -4 -29.5 -2t-21.5 13q-8 110 -27 205q-7 34 -35 165t-53.5 253t-37.5 182q-5 23 8 39.5t34 22.5q34 8 38 -12q1 -4 2 -20t3 -21z" />
    <glyph glyph-name="bracketright" unicode="]" horiz-adv-x="342" 
d="M138 -88q5 447 5 707q-41 0 -85 -3h-16t-11 5.5t-4 17.5v52q0 15 19 15q11 0 71.5 -0.5t80.5 -0.5h11q42 0 55.5 -16t13.5 -53q0 -34 -2.5 -153.5t-2.5 -203.5q0 -308 10 -424q1 -17 -9 -23.5t-36 -6.5q-40 1 -110 1q-15 0 -42 -0.5t-40 -0.5q-19 0 -19 15v52
q0 12 4 17.5t11 5.5h16z" />
    <glyph glyph-name="grave" unicode="`" 
d="M251 572q-89 32 -143 106q-15 21 1 42q23 28 50 35q13 4 18.5 -1.5t12.5 -19.5q34 -71 84 -141q11 -16 4.5 -22t-27.5 1z" />
    <glyph glyph-name="a" unicode="a" horiz-adv-x="491" 
d="M172 0q-58 0 -93.5 34.5t-35.5 101.5q0 90 72.5 141t182.5 53q0 26 -1 41t-5 33.5t-12 28t-22.5 16t-35.5 6.5q-25 0 -44 -12t-28.5 -26.5t-20 -26.5t-19.5 -12q-14 0 -21.5 19t-7.5 45q0 84 159 84q188 0 188 -143v-130q0 -6 -1 -39.5t-1.5 -63t-0.5 -32.5q3 -42 31 -42
q8 0 20 6t18 6q5 0 9.5 -4.5t4.5 -10.5q0 -22 -26 -46t-85 -24q-70 0 -93 49q-52 -52 -132 -52zM298 140v120q-56 0 -94.5 -26.5t-38.5 -87.5q0 -28 19 -43t40 -15q25 0 46 18t28 34z" />
    <glyph glyph-name="b" unicode="b" horiz-adv-x="539" 
d="M266 0q-111 0 -161 40.5t-51 94.5q0 29 1 132t1 131q0 95 -4 164t-8.5 99t-4.5 31q0 25 75 25q32 0 52 -15.5t20 -46.5v-189q49 59 134 59q100 0 140 -66.5t40 -196.5q0 -129 -53 -195.5t-181 -66.5zM366 262q1 85 -15.5 124t-71.5 39q-52 0 -72 -42t-20 -139
q0 -95 20.5 -130.5t69.5 -35.5q28 0 47 14t27.5 41.5t11.5 56.5t3 72z" />
    <glyph glyph-name="c" unicode="c" horiz-adv-x="466" 
d="M173 257q0 -89 35 -134.5t97 -45.5q33 0 54.5 6.5t52.5 27.5q13 9 23 1.5t12 -30.5q2 -25 -4 -37.5t-24 -23.5q-55 -32 -142 -32q-238 0 -238 268q0 134 74.5 201t182.5 67t144 -50q20 -28 5 -77q-6 -19 -17 -22t-29 17q-36 46 -99 46q-61 0 -94 -46t-33 -136z" />
    <glyph glyph-name="d" unicode="d" horiz-adv-x="546" 
d="M336 692q0 25 75 25q32 0 52 -15.5t20 -46.5v-70.5v-86.5v-43q0 -5 -1 -93.5t-1.5 -171.5t-0.5 -86q3 -41 31 -41q9 0 21 5.5t17 5.5t9.5 -4t4.5 -10q0 -22 -26 -46.5t-85 -24.5q-72 0 -93 50q-48 -50 -135 -50q-99 0 -142 68.5t-43 198.5q0 131 44 200t145 69
q81 0 125 -50q0 64 -4.5 114.5t-8.5 75t-4 27.5zM261 81q51 0 71.5 38.5t20.5 134.5q0 98 -20.5 137t-71.5 39q-29 0 -47.5 -12t-27 -37.5t-11 -53t-2.5 -71.5q1 -89 18 -132t70 -43z" />
    <glyph glyph-name="e" unicode="e" horiz-adv-x="491" 
d="M305 77q33 0 54.5 6.5t52.5 27.5q13 9 23 1.5t12 -30.5q2 -25 -4 -37.5t-24 -23.5q-55 -32 -142 -32q-116 0 -177 60.5t-61 206.5q0 125 58 197t173 72q104 0 149 -47.5t45 -121.5q0 -90 -70.5 -133.5t-215.5 -32.5q11 -59 41 -86t86 -27zM173 268v-13q93 -1 131.5 24.5
t38.5 77.5q0 41 -19.5 67t-58.5 26q-92 0 -92 -182z" />
    <glyph glyph-name="f" unicode="f" horiz-adv-x="406" 
d="M263 644q-39 0 -51.5 -28t-13.5 -99l133 3q23 1 31 -8t1 -31q-10 -33 -42 -41q-21 -6 -123 -6q0 -272 7 -355q1 -13 7.5 -28.5t6.5 -22.5q0 -11 -26 -19.5t-52 -8.5q-28 0 -52 16t-24 56q0 26 0.5 73.5t1.5 113t1 101.5q1 35 -6 52t-30 27q-21 9 -25.5 18t0.5 32
q6 28 25 28q22 0 30.5 7t10.5 29q10 101 51 139t135 38q108 0 144 -50q20 -28 5 -77q-6 -19 -17 -22t-29 17q-36 46 -99 46z" />
    <glyph glyph-name="g" unicode="g" horiz-adv-x="534" 
d="M479 66q0 -65 -10 -110t-35 -81t-71.5 -53.5t-116.5 -17.5t-122 21.5t-52 68.5q0 26 7.5 45t21.5 19q11 0 28 -17t43 -35t58 -20q69 -4 95 36.5t29 123.5q-43 -46 -128 -46q-104 0 -145.5 66t-41.5 196q0 129 42.5 196t145.5 67q83 0 128 -48v14q0 22 11 25q34 9 56 9
q62 0 59 -74q-2 -64 -2 -385zM352 262q0 89 -18.5 129.5t-73.5 40.5t-71.5 -41.5t-15.5 -128.5q0 -43 3 -70t11.5 -52t26.5 -37t46 -12q55 0 73.5 41t18.5 130z" />
    <glyph glyph-name="h" unicode="h" horiz-adv-x="568" 
d="M65 398q0 95 -4.5 164t-8.5 99t-4 31q0 25 75 25q32 0 52 -15.5t20 -46.5v-179q53 50 140 50q45 0 78 -16t50.5 -40.5t27.5 -63t12.5 -73.5t1.5 -82q0 -10 -2 -72t-2 -64q0 -41 32 -41q9 0 20.5 5.5t16.5 5.5t10 -4t5 -10q0 -22 -26.5 -46.5t-85.5 -24.5q-42 0 -70.5 22
t-28.5 60v24t0.5 59.5t0.5 77.5q0 50 -2 77t-10 56t-26.5 41.5t-48.5 12.5q-58 0 -76 -44t-16 -142q0 -43 1.5 -81t3 -59.5t1.5 -24.5q0 -14 7 -29.5t7 -21.5q0 -11 -25.5 -19.5t-51.5 -8.5q-28 0 -52 16t-24 56q0 28 1 162.5t1 163.5z" />
    <glyph glyph-name="i" unicode="i" horiz-adv-x="259" 
d="M49 488q0 25 75 25q32 0 52 -15.5t20 -46.5v-200q0 -10 -2 -72t-2 -64q0 -41 32 -41q9 0 20.5 5.5t16.5 5.5t10 -4t5 -10q0 -22 -26.5 -46.5t-85.5 -24.5q-42 0 -70.5 22t-28.5 60q0 2 0.5 33t0.5 77.5v86.5q0 61 -4 109t-8.5 72.5t-4.5 27.5zM208 644
q-2 -32 -26.5 -54.5t-56.5 -22.5t-52.5 22.5t-18.5 54.5t26.5 55t56.5 23t53 -23t18 -55z" />
    <glyph glyph-name="j" unicode="j" horiz-adv-x="255" 
d="M-1 -116q36 0 50 38q3 9 5.5 20.5t4.5 27.5t3.5 31t2 38t1 40.5t0.5 46.5v47.5v52.5v53q0 61 -4 109t-8.5 72.5t-4.5 27.5q0 25 75 25q32 0 52 -15.5t20 -46.5v-200q0 -199 -8.5 -284t-43.5 -127q-45 -53 -138 -53q-107 0 -122 63q-6 22 -2.5 43t16.5 25q11 3 41.5 -15.5
t59.5 -18.5zM208 644q-2 -32 -26.5 -54.5t-56.5 -22.5t-52.5 22.5t-18.5 54.5t26.5 55t56.5 23t53 -23t18 -55z" />
    <glyph glyph-name="k" unicode="k" horiz-adv-x="545" 
d="M64 69v87t0.5 185.5t0.5 140.5q0 61 -4.5 109t-8.5 72.5t-4 27.5q0 25 75 25q32 0 52 -15.5t20 -46.5v-326q35 24 72.5 68t62 79t26.5 36q16 13 61 13q52 0 52 -32q0 -27 -79 -98t-107 -83q132 -224 225 -224q12 0 29.5 6.5t20.5 6.5q8 0 13.5 -5.5t5.5 -12.5
q0 -25 -42.5 -53.5t-102.5 -28.5q-51 0 -123 70t-113 148q0 -12 -0.5 -69t-0.5 -65q0 -5 2.5 -27.5t2.5 -30.5q0 -26 -54 -26q-32 0 -57 18.5t-25 50.5z" />
    <glyph glyph-name="l" unicode="l" horiz-adv-x="262" 
d="M52 692q0 25 75 25q32 0 52 -15.5t20 -46.5v-70.5v-86.5v-43q0 -5 -1 -90.5t-1.5 -166t-0.5 -83.5q3 -41 31 -41q9 0 21 5.5t17 5.5t9.5 -4t4.5 -10q0 -22 -26 -46.5t-85 -24.5q-43 0 -71 22t-28 60v401q0 61 -4.5 109t-8.5 72.5t-4 27.5z" />
    <glyph glyph-name="m" unicode="m" horiz-adv-x="863" 
d="M497 261q0 -27 2.5 -102.5t2.5 -79.5q0 -14 7 -29.5t7 -21.5q0 -11 -23 -19.5t-49 -8.5q-28 0 -52 16t-24 56q0 31 1 104t1 78q0 46 -2.5 72.5t-10.5 53t-25.5 38.5t-45.5 12q-59 0 -76 -45t-16 -149q0 -20 2.5 -85.5t2.5 -71.5q0 -14 7 -29.5t7 -21.5q0 -11 -23 -19.5
t-49 -8.5q-28 0 -52 16t-24 56q0 25 0.5 113.5t0.5 94.5q0 61 -4 109t-8.5 72.5t-4.5 27.5q0 25 74 25q63 0 72 -51q45 63 138 63q99 0 137 -80q49 80 164 80q46 0 78 -16t49.5 -39t26.5 -62.5t11 -73.5t1 -84q0 -10 -2 -72t-2 -64q0 -41 32 -41q9 0 20.5 5.5t16.5 5.5
t10 -4t5 -10q0 -22 -26.5 -46.5t-85.5 -24.5q-42 0 -70.5 22t-28.5 60q0 17 0.5 72t0.5 92q0 47 -2.5 75.5t-10.5 56t-25.5 40t-45.5 12.5q-51 0 -70 -37.5t-19 -131.5z" />
    <glyph glyph-name="n" unicode="n" horiz-adv-x="566" 
d="M194 236q0 -20 2.5 -85.5t2.5 -71.5q0 -14 7 -29.5t7 -21.5q0 -11 -23 -19.5t-49 -8.5q-28 0 -52 16t-24 56q0 25 0.5 113.5t0.5 94.5q0 61 -4 109t-8.5 72.5t-4.5 27.5q0 25 74 25q63 0 72 -51q45 63 138 63q45 0 78 -16t50.5 -40.5t27.5 -63t12.5 -73.5t1.5 -82
q0 -10 -2 -72t-2 -64q0 -41 32 -41q9 0 20.5 5.5t16.5 5.5t10 -4t5 -10q0 -22 -26.5 -46.5t-85.5 -24.5q-42 0 -70.5 22t-28.5 60v24t0.5 59.5t0.5 77.5q0 50 -2 77t-10 56t-26.5 41.5t-48.5 12.5q-59 0 -76 -45t-16 -149z" />
    <glyph glyph-name="o" unicode="o" horiz-adv-x="526" 
d="M352 257q0 44 -3 75.5t-12 59t-27.5 41.5t-46.5 14t-46.5 -13.5t-27 -42t-12 -58.5t-3.5 -76q0 -45 3 -75.5t12 -58.5t27.5 -42t46.5 -14t46.5 13.5t27 42t12 58.5t3.5 76zM263 525q224 0 224 -268t-224 -268t-224 268t224 268z" />
    <glyph glyph-name="p" unicode="p" horiz-adv-x="553" 
d="M327 0q-86 0 -129 46q1 -46 2.5 -88t3 -65t1.5 -27q0 -14 7 -29.5t7 -21.5q0 -11 -25.5 -19.5t-51.5 -8.5q-28 0 -52 16t-24 56q0 28 1 163t1 163q0 94 -4 165.5t-8.5 104.5t-4.5 34q0 25 74 25q62 0 72 -52q46 63 141 63q100 0 138 -66t38 -197q0 -128 -43 -195
t-144 -67zM293 432q-55 0 -73.5 -40.5t-18.5 -129.5t18.5 -129.5t73.5 -40.5q29 0 47 11.5t26.5 37t11 52t2.5 69.5q1 87 -15.5 128.5t-71.5 41.5z" />
    <glyph glyph-name="q" unicode="q" horiz-adv-x="527" 
d="M478 153q0 -173 5 -245q2 -22 10 -31.5t26 -9.5q9 0 20.5 5.5t16.5 5.5t10 -4t5 -10q0 -20 -36.5 -48t-88.5 -28t-77 18t-24 59q1 30 3 93t3 84q-42 -42 -125 -42q-104 0 -145.5 66t-41.5 196q0 129 42.5 196t145.5 67q83 0 127 -47v13q0 22 11 25q34 9 58 9
q30 0 44.5 -16t14.5 -57q0 -34 -2 -129.5t-2 -169.5zM352 262q0 89 -18.5 129.5t-73.5 40.5t-71.5 -41.5t-15.5 -128.5q0 -43 3 -70t11.5 -52t26.5 -37t46 -12q55 0 73.5 41t18.5 130z" />
    <glyph glyph-name="r" unicode="r" horiz-adv-x="381" 
d="M195 463q47 62 126 62q55 0 55 -50q0 -4 0.5 -14t0 -16t-0.5 -15t-2 -14.5t-4.5 -11t-7 -8t-10.5 -2.5q-11 0 -27 14.5t-45 14.5q-46 0 -66.5 -44.5t-20.5 -100.5q0 -20 3 -106.5t3 -92.5q0 -14 7 -29.5t7 -21.5q0 -11 -23 -19.5t-49 -8.5q-28 0 -52 16t-24 56
q0 25 0.5 113.5t0.5 94.5q0 61 -4 109t-8.5 72.5t-4.5 27.5q0 25 74 25q63 0 72 -51z" />
    <glyph glyph-name="s" unicode="s" horiz-adv-x="445" 
d="M239 525q124 0 159 -49q21 -30 5 -77q-6 -18 -17 -20.5t-29 15.5q-38 44 -101 44q-40 0 -64 -15t-24 -44q0 -26 18.5 -41.5t46 -21.5t60 -16t60 -23t46 -44t18.5 -78q0 -75 -51 -120.5t-148 -45.5q-124 0 -160 44q-20 24 -7 72q12 40 52 5q40 -34 98 -34q100 0 100 64
q0 27 -25.5 40.5t-62 21t-73.5 21t-62.5 50t-25.5 97.5q0 69 46 112t141 43z" />
    <glyph glyph-name="t" unicode="t" horiz-adv-x="377" 
d="M197 517l132 3q23 1 31 -8t1 -31q-10 -33 -42 -41q-21 -6 -123 -6q-2 -124 -2 -171q0 -78 6.5 -115t18.5 -48t39 -11q32 0 62 19q40 24 45 -21q5 -41 -17 -62q-42 -40 -141 -33q-56 4 -84.5 25t-43 75.5t-14.5 158.5q0 37 2 109q1 35 -6 52t-30 27q-21 9 -25.5 18t0.5 32
q6 28 25 28q22 0 30 6.5t7 28.5q-2 83 -3 107q-1 20 10 23q30 9 61 9q36 0 49 -21.5t13 -77.5q0 -48 -1 -75z" />
    <glyph glyph-name="u" unicode="u" horiz-adv-x="568" 
d="M372 63q-45 -63 -138 -63q-45 0 -77.5 16.5t-50 40t-27.5 63t-12.5 73.5t-2.5 82q0 61 -2.5 110.5t-5 75t-2.5 28.5q0 25 74 25q29 0 48.5 -15.5t19.5 -43.5q0 -42 -1 -90t-1 -82q0 -50 2 -77t10 -56t26.5 -41.5t48.5 -12.5q59 0 76 45t16 149q0 20 -2.5 85.5t-2.5 71.5
q0 14 -7 29.5t-7 21.5q0 11 23 19.5t49 8.5q28 0 52 -16t24 -56q0 -25 -0.5 -95t-0.5 -76q0 -133 4 -168q2 -23 7.5 -32t20.5 -9q9 0 20.5 5.5t16.5 5.5t10 -4t5 -10q0 -9 -4.5 -19.5t-15 -23t-33.5 -20.5t-55 -8q-42 0 -66.5 14.5t-38.5 48.5z" />
    <glyph glyph-name="v" unicode="v" horiz-adv-x="532" 
d="M283 0q-128 0 -167 171q-47 198 -78 271q-7 17 -20.5 31.5t-13.5 20.5q0 12 19 21t55 9q41 0 63 -18t33 -56q1 -5 6.5 -30t13.5 -62t16 -69q38 -149 58 -185q1 -2 3 -2t3 2q88 307 109 353q34 72 100 69q19 -1 32 -6t12 -18q0 -9 -10 -19q-8 -8 -14 -14.5t-10.5 -16
t-7.5 -15t-8.5 -20t-9.5 -22.5q-9 -22 -60 -157t-85 -215q-10 -23 -39 -23z" />
    <glyph glyph-name="w" unicode="w" horiz-adv-x="853" 
d="M643 23q-10 -23 -30 -23q-64 0 -91.5 35t-50.5 136q-33 133 -46 177q-3 10 -7 -1q-19 -51 -59.5 -160t-64.5 -172q-7 -15 -28 -15q-63 0 -96 40.5t-54 130.5q-47 198 -78 271q-7 17 -20.5 31.5t-13.5 20.5q0 12 19 21t55 9q41 0 63 -18t33 -56q1 -5 6.5 -30t13.5 -62
t16 -69q30 -117 44 -150q1 -2 3 -2t3 2q12 39 28 99.5t31 113t34 108.5q22 65 66 65q45 0 71.5 -16.5t38.5 -58.5q1 -5 6.5 -30t13.5 -62t16 -69q8 -33 16 -61.5t14 -49t8 -26.5q1 -2 3 -2t3 2q74 260 95 305q34 72 100 69q19 -1 32 -6t12 -18q0 -9 -10 -19
q-7 -7 -12.5 -13.5t-9 -11t-7.5 -13.5t-6 -13t-7.5 -18t-7.5 -19q-12 -27 -62 -160.5t-83 -211.5z" />
    <glyph glyph-name="x" unicode="x" horiz-adv-x="531" 
d="M341 54q-26 36 -90 129q-57 -85 -100 -137q-23 -28 -43 -37.5t-54 -9.5q-30 1 -45 10q-7 4 -6.5 10.5t6.5 11.5q36 28 63 60q50 57 130 160q-124 174 -188 237q-20 18 4 28q26 10 61 10q46 0 68 -10t47 -44l85 -124q49 74 93 130q22 28 42.5 38t53.5 10q29 0 45 -9
q7 -4 6.5 -10.5t-6.5 -11.5q-31 -24 -62 -61q-55 -64 -122 -154q129 -182 192 -242q20 -18 -4 -28q-26 -10 -61 -10q-46 0 -68 10t-47 44z" />
    <glyph glyph-name="y" unicode="y" horiz-adv-x="505" 
d="M79 -100q50 0 92.5 45.5t48.5 70.5q-34 13 -63.5 59.5t-40.5 95.5q-6 30 -32.5 127.5t-45.5 143.5q-7 17 -20.5 31.5t-13.5 20.5q0 12 19 21t55 9q41 0 63 -18t33 -56q1 -5 6.5 -30t13.5 -62t16 -69q36 -142 53 -176q1 -2 3 -2t3 2q0 2 14 57.5t27.5 107.5t28 105.5
t20.5 66.5q31 73 97 73q45 0 45 -22q0 -10 -9 -19q-7 -7 -12 -13.5t-8.5 -11.5t-7 -14t-5.5 -13.5t-6.5 -17.5t-7.5 -20q-7 -17 -43 -136t-77 -220.5t-85 -153.5q-7 -9 -18.5 -20t-32.5 -27.5t-49 -27t-57 -10.5q-51 0 -71 25t-20 76q0 14 6 22t15 8q5 0 24 -14t42 -14z" />
    <glyph glyph-name="z" unicode="z" horiz-adv-x="505" 
d="M63 3q-25 0 -31 26q-9 36 13 59q69 74 151 185q76 105 113 159q-85 -11 -141 -11q-95 0 -113 19q-14 14 -14 46q0 20 7.5 26.5t27.5 5.5q22 -1 362 -1q25 0 31 -29q8 -36 -13 -57q-58 -58 -139 -170q-98 -136 -124 -175q93 12 167 12q95 0 113 -19q14 -14 14 -46
q0 -20 -7.5 -26.5t-27.5 -5.5q-44 2 -389 2z" />
    <glyph glyph-name="braceleft" unicode="{" horiz-adv-x="348" 
d="M135 269v-6q24 -12 36.5 -21t26.5 -27t20 -46.5t6 -70.5q0 -12 -2 -42.5t-2 -51.5q0 -116 76 -135q25 -6 25 -21q0 -9 -9.5 -15.5t-24.5 -6.5q-42 0 -72.5 5t-60.5 20t-45.5 46.5t-15.5 79.5q0 26 5.5 80.5t5.5 92.5q0 62 -11 84t-35 22q-10 0 -10 10t10 10q24 0 35 22
t11 84q0 36 -5.5 93.5t-5.5 79.5q0 48 15.5 79.5t45.5 46.5t60.5 20t72.5 5q15 0 24.5 -6.5t9.5 -15.5q0 -15 -25 -21q-76 -19 -76 -135q0 -14 2 -44.5t2 -49.5q0 -42 -6 -70.5t-20 -46.5t-26.5 -27t-36.5 -21z" />
    <glyph glyph-name="bar" unicode="|" horiz-adv-x="267" 
d="M183 660l-5 -787q0 -43 -50 -45q-7 -1 -18 1t-20.5 7.5t-8.5 13.5q15 121 16 206q0 475 1 613q0 24 16 37t38 15q35 0 35 -20q0 -6 -2 -21.5t-2 -19.5z" />
    <glyph glyph-name="braceright" unicode="}" horiz-adv-x="348" 
d="M213 263v6q-24 12 -36.5 21t-26.5 27t-20 46.5t-6 70.5q0 19 2 49.5t2 44.5q0 116 -76 135q-25 6 -25 21q0 9 9.5 15.5t24.5 6.5q42 0 72.5 -5t60.5 -20t45.5 -46.5t15.5 -79.5q0 -22 -5.5 -79.5t-5.5 -93.5q0 -62 11 -84t35 -22q10 0 10 -10t-10 -10q-24 0 -35 -22
t-11 -84q0 -38 5.5 -92.5t5.5 -80.5q0 -48 -15.5 -79.5t-45.5 -46.5t-60.5 -20t-72.5 -5q-15 0 -24.5 6.5t-9.5 15.5q0 15 25 21q76 19 76 135q0 21 -2 51.5t-2 42.5q0 42 6 70.5t20 46.5t26.5 27t36.5 21z" />
    <glyph glyph-name="exclamdown" unicode="&#xa1;" horiz-adv-x="315" 
d="M235 448q0 -32 -22.5 -55t-54.5 -23t-55 23t-23 55t23 54.5t55 22.5t54.5 -22.5t22.5 -54.5zM212 275q0 20 -17 31.5t-40 11.5q-37 0 -37 -16q0 -5 2.5 -18t1.5 -17q-2 -28 -21 -168t-20 -233q-1 -30 23.5 -45.5t60.5 -15.5q14 0 32 2.5t34.5 10t14.5 17.5
q-9 52 -21.5 199.5t-12.5 240.5z" />
    <glyph glyph-name="cent" unicode="&#xa2;" horiz-adv-x="466" 
d="M338 553q0 -5 -0.5 -15t-0.5 -16q75 -9 103 -47q19 -28 4 -77q-6 -17 -15 -25.5t-19 3.5q-29 49 -74 59l-3 -357q41 3 83 32q12 9 20.5 -0.5t10.5 -27.5q2 -25 -4 -37.5t-24 -23.5q-37 -22 -86 -28v-47q0 -41 -50 -45q-7 -1 -18 1t-20.5 7.5t-8.5 13.5l8 68
q-205 16 -205 266q0 119 60 185.5t153 79.5q0 6 0.5 20t0.5 20q0 24 16 37t38 15q35 0 35 -20q0 -6 -2 -21.5t-2 -19.5zM173 257q0 -135 78 -170q0 6 0.5 20t0.5 22v83.5v114.5v103q-79 -32 -79 -173z" />
    <glyph glyph-name="sterling" unicode="&#xa3;" horiz-adv-x="573" 
d="M39 3q-26 -6 -35.5 -0.5t-3.5 32.5q8 46 37 56q24 8 62 10q28 59 28 118q0 28 -4 51q-53 -2 -78 -6q-21 -4 -26 4t-2 34q3 21 12 38q8 12 24 15.5t49 3.5h6q-10 55 -10 111q0 46 15.5 89t46.5 79.5t84.5 59t121.5 22.5q121 0 178 -57q18 -18 15 -50q-3 -26 -24 -57.5
t-42 0.5q-25 39 -52 56t-74 17q-63 0 -93 -42t-30 -111q0 -20 2.5 -65t3.5 -57q28 -1 87 -1q30 0 60 2q13 1 18 -5t4 -26q0 -29 -10 -44q-8 -12 -24 -14.5t-51 -2.5q-11 0 -24.5 0.5t-31.5 1.5t-28 1q-9 -113 -64 -169q98 -7 134 -7q76 0 130 17q27 8 31 8q20 0 20 -36
q-2 -54 -15 -68q-19 -23 -81 -23q-11 0 -43 2q-13 1 -91 11t-128 10q-59 0 -104 -8z" />
    <glyph glyph-name="dieresis" unicode="&#xa8;" 
d="M118 591q-26 0 -44 18.5t-18 43.5q0 26 18 44.5t44 18.5t44.5 -18.5t18.5 -44.5t-18.5 -44t-44.5 -18zM281 591q-25 0 -43.5 18.5t-18.5 43.5q0 26 18 44.5t44 18.5t44.5 -18.5t18.5 -44.5t-18.5 -44t-44.5 -18z" />
    <glyph glyph-name="copyright" unicode="&#xa9;" horiz-adv-x="762" 
d="M309 355q0 -68 26 -103t74 -35q43 0 84 25q16 10 28 5.5t14 -22.5q6 -43 -28 -59q-47 -22 -110 -22q-88 0 -140 50.5t-52 159.5q0 106 55 158t141 52q89 0 122 -40q22 -27 7 -58q-19 -40 -57 -2q-31 31 -69 31q-45 0 -70 -35t-25 -105zM381 68q132 0 193.5 80t61.5 206
t-61.5 206.5t-193.5 80.5t-193.5 -80.5t-61.5 -206.5t61.5 -206t193.5 -80zM381 -11q-174 0 -263 99.5t-89 265.5q0 167 89 266.5t263 99.5t263 -99.5t89 -266.5q0 -166 -89 -265.5t-263 -99.5z" />
    <glyph glyph-name="registered" unicode="&#xae;" horiz-adv-x="762" 
d="M312 496l-1 -112q13 -1 33 -1q41 0 61 15.5t19 46.5q-1 53 -77 53q-20 0 -35 -2zM347 560q181 0 181 -118q0 -79 -93 -108q49 -84 104 -121q34 -24 10 -48q-14 -14 -43 -14q-28 0 -54.5 18.5t-41.5 39t-37.5 56t-32.5 49.5q-7 9 -29 10v-120q0 -6 1 -12q2 -12 2 -17
q0 -24 -42 -24q-24 0 -41.5 13t-17.5 34q0 41 1 65q2 60 2 117q0 41 -6 131q-2 22 6.5 31.5t30.5 12.5q32 5 100 5zM381 68q132 0 193.5 80t61.5 206t-61.5 206.5t-193.5 80.5t-193.5 -80.5t-61.5 -206.5t61.5 -206t193.5 -80zM381 -11q-174 0 -263 99.5t-89 265.5
q0 167 89 266.5t263 99.5t263 -99.5t89 -266.5q0 -166 -89 -265.5t-263 -99.5z" />
    <glyph glyph-name="macron" unicode="&#xaf;" 
d="M39 613q-3 16 -3 34q0 43 23 43q94 -5 192 -5q81 0 109 5q4 -20 4 -45q0 -32 -14 -32q-94 4 -195 4q-88 0 -116 -4z" />
    <glyph glyph-name="twosuperior" unicode="&#xb2;" horiz-adv-x="514" 
d="M116 259q-20 2 -21 20q-3 29 4.5 42t33.5 31q98 70 141.5 118.5t43.5 99.5q0 74 -84 74q-53 0 -97 -39q-17 -13 -25.5 -6t-11.5 25q-7 47 19 66q39 30 134 30q86 0 128.5 -40t42.5 -102q0 -68 -48.5 -123t-153.5 -122q127 3 194 17q12 2 16 -3t4 -16q0 -44 -12 -57
q-12 -15 -82 -15h-226z" />
    <glyph glyph-name="threesuperior" unicode="&#xb3;" horiz-adv-x="544" 
d="M445 600q0 -79 -82 -104q92 -21 92 -110q0 -64 -51 -99t-140 -35q-92 0 -135 29q-25 17 -17 67q3 19 12 26t24 -7q34 -39 101 -39q91 0 91 60q0 40 -38.5 57t-90.5 11q-17 -2 -22 1.5t-7 19.5q-8 59 35 59q58 0 88 12t30 42q0 56 -84 55q-60 -3 -95 -40q-16 -13 -25.5 -6
t-11.5 25q-6 48 19 66q39 30 135 30q172 0 172 -120z" />
    <glyph glyph-name="acute" unicode="&#xb4;" 
d="M162 572q-21 -7 -27.5 -1t4.5 22q50 70 84 141q10 20 19 22q5 1 12 -1q27 -7 50 -35q16 -21 1 -42q-54 -74 -143 -106z" />
    <glyph glyph-name="paragraph" unicode="&#xb6;" horiz-adv-x="654" 
d="M568 -181q0 -31 -36 -31q-38 0 -38 31q0 141 2 318t2 230q0 165 -5 273h-54q-5 -190 -5 -412q0 -47 2.5 -190.5t2.5 -218.5q0 -31 -36 -31q-38 0 -38 31q0 220 2 468q-27 -5 -57 -5q-105 0 -169 53t-64 158q0 104 71.5 155.5t185.5 51.5h179q53 0 76 1t33 -7.5t7.5 -19
t-13.5 -18.5q-15 -10 -50 -13q-5 -395 -5 -415q0 -53 1.5 -154t3 -178t2.5 -77z" />
    <glyph glyph-name="cedilla" unicode="&#xb8;" 
d="M166 -76q0 15 10.5 35.5t21.5 34.5l10 13q4 3 16 3q3 0 16 -10q-22 -31 -22 -49q0 -9 15 -15t33.5 -10t33.5 -19.5t15 -42.5q0 -42 -30 -68.5t-83 -26.5q-46 0 -65 15q-16 13 -13 36t19 13q18 -12 56 -12q25 0 37 11.5t12 23.5q0 13 -13 20.5t-28 10.5t-28 12t-13 25z
" />
    <glyph glyph-name="onesuperior" unicode="&#xb9;" horiz-adv-x="448" 
d="M87 640q41 16 114 50q62 30 82 30q25 0 33.5 -9.5t8.5 -33.5q0 -49 -1.5 -164.5t-1.5 -190.5q0 -5 2 -16t2 -18q0 -22 -54 -22q-58 0 -58 49q0 15 2 146t-1 150q-22 -16 -59 -31.5t-54 -8.5q-22 9 -29 45q-4 18 14 24z" />
    <glyph glyph-name="onequarter" unicode="&#xbc;" horiz-adv-x="1029" 
d="M775 416q11 12 33.5 23t36.5 11q48 0 48 -43q0 -7 -3 -224q28 1 54 5q18 2 18 -16q0 -40 -11 -50q-14 -14 -61 -14v-56q0 -5 2 -16t2 -18q0 -22 -46 -22q-26 0 -46 13t-20 36l1 63h-168q-13 0 -26.5 20.5t-13.5 36.5q0 13 10 26zM457 -52q-1 -5 -2.5 -20.5t-2.5 -20.5
q-4 -20 -38 -12q-21 6 -34 22.5t-8 39.5q12 60 37.5 182t53.5 253t35 165q19 95 27 205q1 11 21.5 13t29.5 -2q48 -13 40 -54q-84 -403 -159 -771zM93 640q41 16 114 50q62 30 82 30q25 0 33.5 -9.5t8.5 -33.5q0 -49 -1.5 -164.5t-1.5 -190.5q0 -5 2 -16t2 -18
q0 -22 -54 -22q-58 0 -58 49q0 15 2 146t-1 150q-22 -16 -59 -31.5t-54 -8.5q-22 9 -29 45q-4 18 14 24zM785 252q0 43 -1 60q-74 -96 -106 -135q72 0 106 1q1 23 1 74z" />
    <glyph glyph-name="onehalf" unicode="&#xbd;" horiz-adv-x="979" 
d="M580 -4q-20 2 -21 20q-3 29 4.5 42t33.5 31q98 70 141.5 118.5t43.5 99.5q0 74 -84 74q-53 0 -97 -39q-17 -13 -25.5 -6t-11.5 25q-7 47 19 66q39 30 134 30q86 0 128.5 -40t42.5 -102q0 -68 -48.5 -123t-153.5 -122q127 3 194 17q12 2 16 -3t4 -16q0 -44 -12 -57
q-12 -15 -82 -15h-226zM417 -52q-1 -5 -2.5 -20.5t-2.5 -20.5q-4 -20 -38 -12q-21 6 -34 22.5t-8 39.5q12 60 37.5 182t53.5 253t35 165q19 95 27 205q1 11 21.5 13t29.5 -2q48 -13 40 -54q-84 -403 -159 -771zM93 640q41 16 114 50q62 30 82 30q25 0 33.5 -9.5t8.5 -33.5
q0 -22 -0.5 -60t-0.5 -56q-2 -144 -2 -239q0 -5 2 -16t2 -18q0 -22 -54 -22q-58 0 -58 49q0 15 2 146t-1 150q-22 -16 -59 -31.5t-54 -8.5q-22 9 -29 45q-4 18 14 24z" />
    <glyph glyph-name="threequarters" unicode="&#xbe;" horiz-adv-x="1076" 
d="M822 416q11 12 33.5 23t36.5 11q48 0 48 -43q0 -7 -3 -224q28 1 54 5q18 2 18 -16q0 -40 -11 -50q-14 -14 -61 -14v-56q0 -5 2 -16t2 -18q0 -22 -46 -22q-26 0 -46 13t-20 36l1 63h-168q-13 0 -26.5 20.5t-13.5 36.5q0 13 10 26zM416 600q0 -79 -82 -104q92 -21 92 -110
q0 -64 -51 -99t-140 -35q-91 0 -135 29q-25 17 -17 67q3 19 12 26t24 -7q34 -39 101 -39q91 0 91 60q0 40 -38.5 57t-90.5 11q-17 -2 -22 1.5t-7 19.5q-8 59 35 59q58 0 88 12t30 42q0 56 -84 55q-60 -3 -95 -40q-16 -13 -25 -6t-12 25q-4 49 19 66q39 30 135 30
q172 0 172 -120zM504 -52q-1 -5 -2.5 -20.5t-2.5 -20.5q-4 -20 -38 -12q-21 6 -34 22.5t-8 39.5q12 60 37.5 182t53.5 253t35 165q19 95 27 205q1 11 21.5 13t29.5 -2q48 -13 40 -54q-84 -403 -159 -771zM832 252q0 43 -1 60q-74 -96 -106 -135q72 0 106 1q1 23 1 74z" />
    <glyph glyph-name="questiondown" unicode="&#xbf;" horiz-adv-x="498" 
d="M268 228q18 9 24.5 25t5 30t4.5 24.5t23 10.5q23 0 43 -16.5t20 -44.5q0 -30 -18 -54t-44 -41.5t-52.5 -35.5t-44.5 -44.5t-18 -59.5q0 -59 43 -95t101 -36q42 0 89 39q14 10 22.5 1.5t10.5 -28.5q9 -55 -21 -76q-34 -23 -90 -23q-67 0 -131 23t-111 74.5t-47 121.5
q0 61 39 106t152 99zM413 448q0 -32 -22.5 -55t-54.5 -23t-55 23t-23 55t23 54.5t55 22.5t54.5 -22.5t22.5 -54.5z" />
    <glyph glyph-name="Agrave" unicode="&#xc0;" horiz-adv-x="697" 
d="M328 708q46 0 77.5 -14t55 -47t38.5 -70.5t34 -101.5q3 -11 19.5 -72.5t28.5 -103.5t30 -98t32 -89q10 -23 29 -42.5t19 -28.5q0 -17 -23 -29t-73 -12q-90 0 -117 112q-16 58 -22 85q-63 3 -125 3q-35 0 -105 -2q-26 -80 -37 -106q-21 -49 -46.5 -70.5t-73.5 -21.5
q-26 0 -44.5 7t-17.5 25q0 13 15 26q9 9 16.5 17.5t12 14t10 17t8 17t10.5 24t12 28.5q12 28 76 217t107 284q13 31 54 31zM341 567q-9 -29 -85 -273h75q67 0 101 1l-5 23q-50 201 -76 249q-8 8 -10 0zM406 758q-89 32 -143 106q-15 21 1 42q23 28 50 35q13 4 18.5 -1.5
t12.5 -19.5q34 -71 84 -141q11 -16 4.5 -22t-27.5 1z" />
    <glyph glyph-name="Aacute" unicode="&#xc1;" horiz-adv-x="697" 
d="M328 708q46 0 77.5 -14t55 -47t38.5 -70.5t34 -101.5q3 -11 19.5 -72.5t28.5 -103.5t30 -98t32 -89q10 -23 29 -42.5t19 -28.5q0 -17 -23 -29t-73 -12q-90 0 -117 112q-16 58 -22 85q-63 3 -125 3q-35 0 -105 -2q-26 -80 -37 -106q-21 -49 -46.5 -70.5t-73.5 -21.5
q-26 0 -44.5 7t-17.5 25q0 13 15 26q9 9 16.5 17.5t12 14t10 17t8 17t10.5 24t12 28.5q12 28 76 217t107 284q13 31 54 31zM341 567q-9 -29 -85 -273h75q67 0 101 1l-5 23q-50 201 -76 249q-8 8 -10 0zM290 758q-21 -7 -27.5 -1t4.5 22q50 70 84 141q10 20 19 22q5 1 12 -1
q27 -7 50 -35q16 -21 1 -42q-54 -74 -143 -106z" />
    <glyph glyph-name="Acircumflex" unicode="&#xc2;" horiz-adv-x="697" 
d="M328 708q46 0 77.5 -14t55 -47t38.5 -70.5t34 -101.5q3 -11 19.5 -72.5t28.5 -103.5t30 -98t32 -89q10 -23 29 -42.5t19 -28.5q0 -17 -23 -29t-73 -12q-90 0 -117 112q-16 58 -22 85q-63 3 -125 3q-35 0 -105 -2q-26 -80 -37 -106q-21 -49 -46.5 -70.5t-73.5 -21.5
q-26 0 -44.5 7t-17.5 25q0 13 15 26q9 9 16.5 17.5t12 14t10 17t8 17t10.5 24t12 28.5q12 28 76 217t107 284q13 31 54 31zM341 567q-9 -29 -85 -273h75q67 0 101 1l-5 23q-50 201 -76 249q-8 8 -10 0zM225 757q-22 -4 -28 3t8 21q57 60 102 128q19 27 38 27q25 0 44 -27
q62 -85 102 -128q14 -14 8 -21t-28 -3q-61 12 -123 67q-64 -55 -123 -67z" />
    <glyph glyph-name="Atilde" unicode="&#xc3;" horiz-adv-x="697" 
d="M328 708q46 0 77.5 -14t55 -47t38.5 -70.5t34 -101.5q3 -11 19.5 -72.5t28.5 -103.5t30 -98t32 -89q10 -23 29 -42.5t19 -28.5q0 -17 -23 -29t-73 -12q-90 0 -117 112q-16 58 -22 85q-63 3 -125 3q-35 0 -105 -2q-26 -80 -37 -106q-21 -49 -46.5 -70.5t-73.5 -21.5
q-26 0 -44.5 7t-17.5 25q0 13 15 26q9 9 16.5 17.5t12 14t10 17t8 17t10.5 24t12 28.5q12 28 76 217t107 284q13 31 54 31zM341 567q-9 -29 -85 -273h75q67 0 101 1l-5 23q-50 201 -76 249q-8 8 -10 0zM348 887q30 -15 53 -15q24 0 48 24q7 6 12.5 6t8 -7.5t1.5 -20.5
q-6 -44 -26 -66.5t-48 -22.5q-25 0 -49 12q-30 15 -53 15q-24 0 -48 -24q-4 -4 -7.5 -5.5t-6.5 0t-5 5t-3 9t0 13.5q6 44 26 66.5t48 22.5q25 0 49 -12z" />
    <glyph glyph-name="Adieresis" unicode="&#xc4;" horiz-adv-x="697" 
d="M328 708q46 0 77.5 -14t55 -47t38.5 -70.5t34 -101.5q3 -11 19.5 -72.5t28.5 -103.5t30 -98t32 -89q10 -23 29 -42.5t19 -28.5q0 -17 -23 -29t-73 -12q-90 0 -117 112q-16 58 -22 85q-63 3 -125 3q-35 0 -105 -2q-26 -80 -37 -106q-21 -49 -46.5 -70.5t-73.5 -21.5
q-26 0 -44.5 7t-17.5 25q0 13 15 26q9 9 16.5 17.5t12 14t10 17t8 17t10.5 24t12 28.5q12 28 76 217t107 284q13 31 54 31zM341 567q-9 -29 -85 -273h75q67 0 101 1l-5 23q-50 201 -76 249q-8 8 -10 0zM266 777q-26 0 -44 18.5t-18 43.5q0 26 18 44.5t44 18.5t44.5 -18.5
t18.5 -44.5t-18.5 -44t-44.5 -18zM429 777q-25 0 -43.5 18.5t-18.5 43.5q0 26 18 44.5t44 18.5t44.5 -18.5t18.5 -44.5t-18.5 -44t-44.5 -18z" />
    <glyph glyph-name="Aring" unicode="&#xc5;" horiz-adv-x="697" 
d="M328 708q46 0 77.5 -14t55 -47t38.5 -70.5t34 -101.5q3 -11 19.5 -72.5t28.5 -103.5t30 -98t32 -89q10 -23 29 -42.5t19 -28.5q0 -17 -23 -29t-73 -12q-90 0 -117 112q-16 58 -22 85q-63 3 -125 3q-35 0 -105 -2q-26 -80 -37 -106q-21 -49 -46.5 -70.5t-73.5 -21.5
q-26 0 -44.5 7t-17.5 25q0 13 15 26q9 9 16.5 17.5t12 14t10 17t8 17t10.5 24t12 28.5q12 28 76 217t107 284q13 31 54 31zM341 567q-9 -29 -85 -273h75q67 0 101 1l-5 23q-50 201 -76 249q-8 8 -10 0zM260 848q0 37 25 62.5t63 25.5t63 -25.5t25 -62.5t-25 -62.5t-63 -25.5
t-63 25.5t-25 62.5zM299 848q0 -22 13.5 -36.5t35.5 -14.5t35.5 14.5t13.5 36.5t-13.5 36.5t-35.5 14.5t-35.5 -14.5t-13.5 -36.5z" />
    <glyph glyph-name="AE" unicode="&#xc6;" horiz-adv-x="1034" 
d="M430 709q429 -8 535 0q12 1 15 -4t3 -16q0 -55 -15 -73q-8 -9 -24 -13.5t-30.5 -5t-48.5 -0.5h-14q-118 0 -280 22q13 -70 31 -217q240 -2 316 13q12 2 15 -3t3 -17q0 -54 -15 -73q-11 -12 -29 -15t-63 -3q-64 0 -217 9q4 -35 8.5 -81t9 -90.5t5.5 -54.5q227 2 354 24
q12 2 15 -2.5t3 -15.5q0 -60 -14 -75q-7 -7 -16 -11t-29 -5.5t-30 -1.5h-43h-266h-19q-89 0 -100 112q-1 8 -4 36.5t-5 48.5q-63 3 -125 3q-35 0 -105 -2q-37 -80 -53 -106q-28 -49 -57 -70.5t-77 -21.5q-63 0 -57 32q2 13 19 26q11 9 19.5 17.5t14 14.5t12.5 17t11 17
t14 23.5t16 28.5q15 26 107.5 215.5t150.5 285.5q19 32 59 32zM426 576l-130 -282h75q67 0 101 1l-2 23q-20 199 -34 258q-1 3 -4.5 3t-5.5 -3z" />
    <glyph glyph-name="Ccedilla" unicode="&#xc7;" horiz-adv-x="640" 
d="M286 -76q0 24 30 69q-127 15 -200 102.5t-73 258.5q0 185 95 275.5t244 90.5q158 0 210 -66q15 -18 18 -44t-6 -43q-26 -51 -76 -1q-63 63 -140 63q-90 0 -140 -68.5t-50 -205.5q0 -131 52.5 -200t148.5 -69q87 0 161 48q45 28 51 -16q5 -37 -5 -58t-37 -34
q-78 -37 -193 -37q-16 0 -23 1q-15 -24 -15 -39q0 -9 15 -15t33.5 -10t33.5 -19.5t15 -42.5q0 -42 -30 -68.5t-83 -26.5q-46 0 -65 15q-16 13 -13 36t19 13q18 -12 56 -12q25 0 37 11.5t12 23.5q0 13 -13 20.5t-28 10.5t-28 12t-13 25z" />
    <glyph glyph-name="Egrave" unicode="&#xc8;" horiz-adv-x="592" 
d="M104 709q21 0 115 -1t169 -0.5t116 2.5q21 1 28.5 -6.5t7.5 -31.5q0 -37 -15 -53q-11 -14 -37 -18t-79 -4q-93 0 -210 18q0 -32 0.5 -107.5t0.5 -105.5q177 -2 257 11q20 3 29 -4.5t9 -30.5q0 -47 -23.5 -60.5t-84.5 -13.5q-43 0 -188 11q-1 -44 -3.5 -131t-2.5 -97
q227 2 354 24q12 2 15 -2.5t3 -15.5q0 -60 -14 -75q-7 -7 -16 -11t-29 -5.5t-30 -1.5h-43h-323q-39 0 -50.5 12.5t-8.5 51.5q9 119 9 293q0 163 -10 291q-3 31 7.5 46t46.5 15zM354 758q-89 32 -143 106q-15 21 1 42q23 28 50 35q13 4 18.5 -1.5t12.5 -19.5q34 -71 84 -141
q11 -16 4.5 -22t-27.5 1z" />
    <glyph glyph-name="Eacute" unicode="&#xc9;" horiz-adv-x="592" 
d="M104 709q21 0 115 -1t169 -0.5t116 2.5q21 1 28.5 -6.5t7.5 -31.5q0 -37 -15 -53q-11 -14 -37 -18t-79 -4q-93 0 -210 18q0 -32 0.5 -107.5t0.5 -105.5q177 -2 257 11q20 3 29 -4.5t9 -30.5q0 -47 -23.5 -60.5t-84.5 -13.5q-43 0 -188 11q-1 -44 -3.5 -131t-2.5 -97
q227 2 354 24q12 2 15 -2.5t3 -15.5q0 -60 -14 -75q-7 -7 -16 -11t-29 -5.5t-30 -1.5h-43h-323q-39 0 -50.5 12.5t-8.5 51.5q9 119 9 293q0 163 -10 291q-3 31 7.5 46t46.5 15zM238 758q-21 -7 -27.5 -1t4.5 22q50 70 84 141q10 20 19 22q5 1 12 -1q27 -7 50 -35
q16 -21 1 -42q-54 -74 -143 -106z" />
    <glyph glyph-name="Ecircumflex" unicode="&#xca;" horiz-adv-x="592" 
d="M104 709q21 0 115 -1t169 -0.5t116 2.5q21 1 28.5 -6.5t7.5 -31.5q0 -37 -15 -53q-11 -14 -37 -18t-79 -4q-93 0 -210 18q0 -32 0.5 -107.5t0.5 -105.5q177 -2 257 11q20 3 29 -4.5t9 -30.5q0 -47 -23.5 -60.5t-84.5 -13.5q-43 0 -188 11q-1 -44 -3.5 -131t-2.5 -97
q227 2 354 24q12 2 15 -2.5t3 -15.5q0 -60 -14 -75q-7 -7 -16 -11t-29 -5.5t-30 -1.5h-43h-323q-39 0 -50.5 12.5t-8.5 51.5q9 119 9 293q0 163 -10 291q-3 31 7.5 46t46.5 15zM173 757q-22 -4 -28 3t8 21q57 60 102 128q19 27 38 27q25 0 44 -27q62 -85 102 -128
q14 -14 8 -21t-28 -3q-61 12 -123 67q-64 -55 -123 -67z" />
    <glyph glyph-name="Edieresis" unicode="&#xcb;" horiz-adv-x="592" 
d="M104 709q21 0 115 -1t169 -0.5t116 2.5q21 1 28.5 -6.5t7.5 -31.5q0 -37 -15 -53q-11 -14 -37 -18t-79 -4q-93 0 -210 18q0 -32 0.5 -107.5t0.5 -105.5q177 -2 257 11q20 3 29 -4.5t9 -30.5q0 -47 -23.5 -60.5t-84.5 -13.5q-43 0 -188 11q-1 -44 -3.5 -131t-2.5 -97
q227 2 354 24q12 2 15 -2.5t3 -15.5q0 -60 -14 -75q-7 -7 -16 -11t-29 -5.5t-30 -1.5h-43h-323q-39 0 -50.5 12.5t-8.5 51.5q9 119 9 293q0 163 -10 291q-3 31 7.5 46t46.5 15zM377 777q-25 0 -43.5 18.5t-18.5 43.5q0 26 18 44.5t44 18.5t44.5 -18.5t18.5 -44.5t-18.5 -44
t-44.5 -18zM214 777q-26 0 -44 18.5t-18 43.5q0 26 18 44.5t44 18.5t44.5 -18.5t18.5 -44.5t-18.5 -44t-44.5 -18z" />
    <glyph glyph-name="Igrave" unicode="&#xcc;" horiz-adv-x="274" 
d="M208 81q0 -6 3 -26.5t3 -28.5q0 -26 -60 -26q-36 0 -63 18.5t-27 50.5q0 34 2.5 141t2.5 191q0 152 -21 278q-2 10 14.5 17.5t34.5 10t32 2.5q36 0 60 -15.5t24 -45.5q-5 -483 -5 -567zM195 758q-89 32 -143 106q-15 21 1 42q23 28 50 35q13 4 18.5 -1.5t12.5 -19.5
q34 -71 84 -141q11 -16 4.5 -22t-27.5 1z" />
    <glyph glyph-name="Iacute" unicode="&#xcd;" horiz-adv-x="274" 
d="M208 81q0 84 5 567q0 30 -24 45.5t-60 15.5q-14 0 -32 -2.5t-34.5 -10t-14.5 -17.5q21 -126 21 -278q0 -84 -2.5 -191t-2.5 -141q0 -32 27 -50.5t63 -18.5q60 0 60 26q0 8 -3 28.5t-3 26.5zM79 758q-21 -7 -27.5 -1t4.5 22q50 70 84 141q10 20 19 22q5 1 12 -1
q27 -7 50 -35q16 -21 1 -42q-54 -74 -143 -106z" />
    <glyph glyph-name="Icircumflex" unicode="&#xce;" horiz-adv-x="274" 
d="M208 81q0 84 5 567q0 30 -24 45.5t-60 15.5q-14 0 -32 -2.5t-34.5 -10t-14.5 -17.5q21 -126 21 -278q0 -84 -2.5 -191t-2.5 -141q0 -32 27 -50.5t63 -18.5q60 0 60 26q0 8 -3 28.5t-3 26.5zM14 757q-22 -4 -28 3t8 21q57 60 102 128q19 27 38 27q25 0 44 -27
q62 -85 102 -128q14 -14 8 -21t-28 -3q-61 12 -123 67q-64 -55 -123 -67z" />
    <glyph glyph-name="Idieresis" unicode="&#xcf;" horiz-adv-x="274" 
d="M208 81q0 84 5 567q0 30 -24 45.5t-60 15.5q-14 0 -32 -2.5t-34.5 -10t-14.5 -17.5q21 -126 21 -278q0 -84 -2.5 -191t-2.5 -141q0 -32 27 -50.5t63 -18.5q60 0 60 26q0 8 -3 28.5t-3 26.5zM55 777q-25 0 -43.5 18.5t-18.5 43.5q0 26 18 44.5t44 18.5t44.5 -18.5
t18.5 -44.5t-18.5 -44t-44.5 -18zM218 777q-26 0 -44 18.5t-18 43.5q0 26 18 44.5t44 18.5t44.5 -18.5t18.5 -44.5t-18.5 -44t-44.5 -18z" />
    <glyph glyph-name="Eth" unicode="&#xd0;" horiz-adv-x="739" 
d="M48 31q12 207 12 291q-58 -2 -94 -8q-21 -4 -26 3.5t-3 34.5q3 21 12 38q12 20 72 20h39q-1 73 -12 272q-1 8 0.5 13t9 9.5t21.5 4.5q31 0 116 2t101 2q56 0 109.5 -10.5t107 -36.5t93.5 -65.5t65 -102t25 -141.5t-25 -142t-65 -102.5t-93.5 -65.5t-107 -36.5
t-109.5 -10.5q-16 0 -101 2t-116 2q-21 0 -26.5 7t-4.5 20zM539 357q0 70 -18.5 122.5t-46.5 82.5t-67.5 48t-74 24t-73.5 6q-10 0 -29.5 -1t-26.5 -1q-3 0 -5.5 -0.5t-3 -2.5t-0.5 -3.5v-4.5v-5q0 -8 2 -88.5t3 -125.5q78 0 117 3q13 2 18 -4.5t5 -26.5q0 -29 -10 -44
q-12 -18 -74 -18q-36 0 -56 1q-1 -47 -3 -129t-2 -89v-5v-4.5t0.5 -3.5t3 -2.5t5.5 -0.5q7 0 26.5 -1t29.5 -1q280 0 280 274z" />
    <glyph glyph-name="Ntilde" unicode="&#xd1;" horiz-adv-x="699" 
d="M129 709q33 0 52 -11.5t41 -41.5q9 -13 123 -177t172 -245q0 53 -1 159t-2 186t-1 83q0 47 84 47q42 0 42 -22q0 -4 -2 -15.5t-2 -20.5q0 -8 -2.5 -224.5t-2.5 -229.5q0 -8 4 -79t4 -86q0 -32 -81 -32q-28 0 -43 7.5t-28 26.5q-3 4 -134 192.5t-183 260.5q0 -46 1 -157.5
t2 -195.5t1 -87q0 -47 -84 -47q-42 0 -42 22q0 4 2 15.5t2 20.5q0 8 2.5 224.5t2.5 229.5q0 8 -4 79t-4 86q0 32 81 32zM349 887q30 -15 53 -15q24 0 48 24q7 6 12.5 6t8 -7.5t1.5 -20.5q-6 -44 -26 -66.5t-48 -22.5q-25 0 -49 12q-30 15 -53 15q-24 0 -48 -24
q-4 -4 -7.5 -5.5t-6.5 0t-5 5t-3 9t0 13.5q6 44 26 66.5t48 22.5q25 0 49 -12z" />
    <glyph glyph-name="Ograve" unicode="&#xd2;" horiz-adv-x="742" 
d="M544 354q0 277 -173 277q-51 0 -86 -21.5t-53.5 -62t-26 -87t-7.5 -106.5t7.5 -106.5t26 -86.5t53.5 -61.5t86 -21.5q173 0 173 276zM371 720q171 0 249.5 -97.5t78.5 -268.5q0 -170 -78.5 -267.5t-249.5 -97.5t-249.5 97.5t-78.5 267.5q0 171 78.5 268.5t249.5 97.5z
M429 758q-89 32 -143 106q-15 21 1 42q23 28 50 35q13 4 18.5 -1.5t12.5 -19.5q34 -71 84 -141q11 -16 4.5 -22t-27.5 1z" />
    <glyph glyph-name="Oacute" unicode="&#xd3;" horiz-adv-x="742" 
d="M544 354q0 277 -173 277q-51 0 -86 -21.5t-53.5 -62t-26 -87t-7.5 -106.5t7.5 -106.5t26 -86.5t53.5 -61.5t86 -21.5q173 0 173 276zM371 720q171 0 249.5 -97.5t78.5 -268.5q0 -170 -78.5 -267.5t-249.5 -97.5t-249.5 97.5t-78.5 267.5q0 171 78.5 268.5t249.5 97.5z
M313 758q-21 -7 -27.5 -1t4.5 22q50 70 84 141q10 20 19 22q5 1 12 -1q27 -7 50 -35q16 -21 1 -42q-54 -74 -143 -106z" />
    <glyph glyph-name="Ocircumflex" unicode="&#xd4;" horiz-adv-x="742" 
d="M544 354q0 277 -173 277q-51 0 -86 -21.5t-53.5 -62t-26 -87t-7.5 -106.5t7.5 -106.5t26 -86.5t53.5 -61.5t86 -21.5q173 0 173 276zM371 720q171 0 249.5 -97.5t78.5 -268.5q0 -170 -78.5 -267.5t-249.5 -97.5t-249.5 97.5t-78.5 267.5q0 171 78.5 268.5t249.5 97.5z
M248 757q-22 -4 -28 3t8 21q57 60 102 128q19 27 38 27q25 0 44 -27q62 -85 102 -128q14 -14 8 -21t-28 -3q-61 12 -123 67q-64 -55 -123 -67z" />
    <glyph glyph-name="Otilde" unicode="&#xd5;" horiz-adv-x="742" 
d="M544 354q0 277 -173 277q-51 0 -86 -21.5t-53.5 -62t-26 -87t-7.5 -106.5t7.5 -106.5t26 -86.5t53.5 -61.5t86 -21.5q173 0 173 276zM371 720q171 0 249.5 -97.5t78.5 -268.5q0 -170 -78.5 -267.5t-249.5 -97.5t-249.5 97.5t-78.5 267.5q0 171 78.5 268.5t249.5 97.5z
M371 887q30 -15 53 -15q24 0 48 24q7 6 12.5 6t8 -7.5t1.5 -20.5q-6 -44 -26 -66.5t-48 -22.5q-25 0 -49 12q-30 15 -53 15q-24 0 -48 -24q-7 -6 -12.5 -6t-8 7.5t-1.5 20.5q6 44 26 66.5t48 22.5q25 0 49 -12z" />
    <glyph glyph-name="Odieresis" unicode="&#xd6;" horiz-adv-x="742" 
d="M544 354q0 277 -173 277q-51 0 -86 -21.5t-53.5 -62t-26 -87t-7.5 -106.5t7.5 -106.5t26 -86.5t53.5 -61.5t86 -21.5q173 0 173 276zM371 720q171 0 249.5 -97.5t78.5 -268.5q0 -170 -78.5 -267.5t-249.5 -97.5t-249.5 97.5t-78.5 267.5q0 171 78.5 268.5t249.5 97.5z
M289 777q-25 0 -43.5 18.5t-18.5 43.5q0 26 18 44.5t44 18.5t44.5 -18.5t18.5 -44.5t-18.5 -44t-44.5 -18zM452 777q-26 0 -44 18.5t-18 43.5q0 26 18 44.5t44 18.5t44.5 -18.5t18.5 -44.5t-18.5 -44t-44.5 -18z" />
    <glyph glyph-name="Oslash" unicode="&#xd8;" horiz-adv-x="742" 
d="M333 -52q-2 -5 -3 -21t-2 -20q-4 -20 -38 -12q-21 6 -34 22.5t-8 39.5q4 26 9 46q-214 58 -214 351q0 171 78.5 268.5t249.5 97.5q5 0 14 -0.5t13 -0.5l3 43q1 11 21.5 13t29.5 -2q48 -12 40 -54l-3 -14q210 -61 210 -351q0 -170 -78.5 -267.5t-249.5 -97.5q-5 0 -15 0.5
t-15 0.5zM198 354q0 -193 80 -250l96 453l13 73q-5 1 -16 1q-51 0 -86 -21.5t-53.5 -62t-26 -87t-7.5 -106.5zM544 354q0 187 -77 247l-108 -523h12q173 0 173 276z" />
    <glyph glyph-name="Ugrave" unicode="&#xd9;" horiz-adv-x="683" 
d="M197 325q0 -118 33 -171t124 -53q94 0 129 57t35 199q0 227 -14 313q-2 16 11 25t27.5 11.5t32.5 2.5q35 0 49.5 -22.5t14.5 -76.5q0 -48 -1.5 -117.5t-1.5 -110.5q0 -72 -4.5 -121t-21 -102.5t-46 -85t-83.5 -52.5t-131 -21q-108 0 -173 35t-95 110q-25 65 -25 237
q0 185 -15 297q-2 15 24.5 22.5t50.5 7.5q36 0 60 -15.5t24 -45.5q0 -44 -2 -153t-2 -170zM399 758q-89 32 -143 106q-15 21 1 42q23 28 50 35q13 4 18.5 -1.5t12.5 -19.5q34 -71 84 -141q11 -16 4.5 -22t-27.5 1z" />
    <glyph glyph-name="Uacute" unicode="&#xda;" horiz-adv-x="683" 
d="M197 325q0 61 2 170t2 153q0 30 -24 45.5t-60 15.5q-24 0 -50.5 -7.5t-24.5 -22.5q15 -112 15 -297q0 -172 25 -237q30 -75 95 -110t173 -35q77 0 131 21t83.5 52.5t46 85t21 102.5t4.5 121q0 41 1.5 110.5t1.5 117.5q0 54 -14.5 76.5t-49.5 22.5q-18 0 -32.5 -2.5
t-27.5 -11.5t-11 -25q14 -86 14 -313q0 -142 -35 -199t-129 -57q-91 0 -124 53t-33 171zM283 758q-21 -7 -27.5 -1t4.5 22q50 70 84 141q10 20 19 22q5 1 12 -1q27 -7 50 -35q16 -21 1 -42q-54 -74 -143 -106z" />
    <glyph glyph-name="Ucircumflex" unicode="&#xdb;" horiz-adv-x="683" 
d="M197 325q0 61 2 170t2 153q0 30 -24 45.5t-60 15.5q-24 0 -50.5 -7.5t-24.5 -22.5q15 -112 15 -297q0 -172 25 -237q30 -75 95 -110t173 -35q77 0 131 21t83.5 52.5t46 85t21 102.5t4.5 121q0 41 1.5 110.5t1.5 117.5q0 54 -14.5 76.5t-49.5 22.5q-18 0 -32.5 -2.5
t-27.5 -11.5t-11 -25q14 -86 14 -313q0 -142 -35 -199t-129 -57q-91 0 -124 53t-33 171zM218 757q-22 -4 -28 3t8 21q57 60 102 128q19 27 38 27q25 0 44 -27q62 -85 102 -128q14 -14 8 -21t-28 -3q-61 12 -123 67q-64 -55 -123 -67z" />
    <glyph glyph-name="Udieresis" unicode="&#xdc;" horiz-adv-x="683" 
d="M197 325q0 61 2 170t2 153q0 30 -24 45.5t-60 15.5q-24 0 -50.5 -7.5t-24.5 -22.5q15 -112 15 -297q0 -172 25 -237q30 -75 95 -110t173 -35q77 0 131 21t83.5 52.5t46 85t21 102.5t4.5 121q0 41 1.5 110.5t1.5 117.5q0 54 -14.5 76.5t-49.5 22.5q-18 0 -32.5 -2.5
t-27.5 -11.5t-11 -25q14 -86 14 -313q0 -142 -35 -199t-129 -57q-91 0 -124 53t-33 171zM259 777q-25 0 -43.5 18.5t-18.5 43.5q0 26 18 44.5t44 18.5t44.5 -18.5t18.5 -44.5t-18.5 -44t-44.5 -18zM422 777q-26 0 -44 18.5t-18 43.5q0 26 18 44.5t44 18.5t44.5 -18.5
t18.5 -44.5t-18.5 -44t-44.5 -18z" />
    <glyph glyph-name="Yacute" unicode="&#xdd;" horiz-adv-x="629" 
d="M381 81q0 -6 3 -26.5t3 -28.5q0 -26 -60 -26q-36 0 -63 18.5t-27 50.5q0 31 1.5 97.5t1.5 93.5q-39 28 -69 88t-61.5 143.5t-57.5 129.5q-6 11 -26 28t-20 31q0 13 21 21t48 8q85 0 120 -62q23 -42 67 -157.5t70 -150.5q28 37 69 147t69 161q20 36 43 49t60 13
q20 0 35 -6.5t15 -16.5q0 -9 -4 -15t-11 -11t-21 -21t-29 -40q-27 -43 -57.5 -120.5t-58.5 -135.5t-61 -82v-53v-66.5v-60.5zM256 758q-21 -7 -27.5 -1t4.5 22q50 70 84 141q10 20 19 22q5 1 12 -1q27 -7 50 -35q16 -21 1 -42q-54 -74 -143 -106z" />
    <glyph glyph-name="Thorn" unicode="&#xde;" horiz-adv-x="648" 
d="M208 157v-76q0 -6 3 -26.5t3 -28.5q0 -26 -60 -26q-36 0 -63 18.5t-27 50.5q0 34 2.5 141t2.5 191q0 152 -21 278q-2 10 14.5 17.5t34.5 10t32 2.5q36 0 60 -15.5t24 -45.5q0 -47 -1 -70q27 1 79 1q151 0 233 -46t82 -156q0 -59 -26.5 -103t-72 -69t-101 -37t-119.5 -12
q-66 0 -79 1zM211 498l-3 -257q28 -3 73 -3q84 1 127.5 37.5t42.5 105.5q-3 121 -159 121q-29 0 -81 -4z" />
    <glyph glyph-name="germandbls" unicode="&#xdf;" horiz-adv-x="577" 
d="M217 367q0 36 14.5 59t35.5 35.5t42 24t35.5 33t14.5 53.5q0 36 -19 54.5t-51 18.5q-52 0 -72.5 -52.5t-20.5 -154.5q0 -314 6 -359q2 -13 8 -28.5t6 -22.5q0 -11 -23 -19.5t-49 -8.5q-28 0 -52 16t-24 56q0 11 0.5 155.5t0.5 223.5q0 269 225 269q89 0 137.5 -37.5
t48.5 -106.5q0 -49 -22 -81.5t-49 -44.5t-49 -26.5t-22 -30.5q0 -20 21.5 -36t52.5 -29.5t62.5 -31.5t53 -53.5t21.5 -84.5q0 -81 -54.5 -125t-142.5 -44q-85 0 -107 33q-17 25 -7 69q5 17 12.5 25.5t17.5 -2.5q23 -38 77 -38q38 0 58 17t20 47q0 28 -21 48.5t-51.5 35.5
t-61 32t-51.5 45t-21 66z" />
    <glyph glyph-name="agrave" unicode="&#xe0;" horiz-adv-x="491" 
d="M172 0q-58 0 -93.5 34.5t-35.5 101.5q0 90 72.5 141t182.5 53q0 26 -1 41t-5 33.5t-12 28t-22.5 16t-35.5 6.5q-25 0 -44 -12t-28.5 -26.5t-20 -26.5t-19.5 -12q-14 0 -21.5 19t-7.5 45q0 84 159 84q188 0 188 -143v-130q0 -6 -1 -39.5t-1.5 -63t-0.5 -32.5q3 -42 31 -42
q8 0 20 6t18 6q5 0 9.5 -4.5t4.5 -10.5q0 -22 -26 -46t-85 -24q-70 0 -93 49q-52 -52 -132 -52zM298 140v120q-56 0 -94.5 -26.5t-38.5 -87.5q0 -28 19 -43t40 -15q25 0 46 18t28 34zM305 572q-89 32 -143 106q-15 21 1 42q23 28 50 35q13 4 18.5 -1.5t12.5 -19.5
q34 -71 84 -141q11 -16 4.5 -22t-27.5 1z" />
    <glyph glyph-name="aacute" unicode="&#xe1;" horiz-adv-x="491" 
d="M172 0q80 0 132 52q23 -49 93 -49q59 0 85 24t26 46q0 6 -4.5 10.5t-9.5 4.5q-6 0 -18 -6t-20 -6q-28 0 -31 42q0 3 0.5 32.5t1.5 63t1 39.5v130q0 143 -188 143q-159 0 -159 -84q0 -26 7.5 -45t21.5 -19q11 0 24 19t34.5 38.5t53.5 19.5q21 0 35.5 -6.5t22.5 -16t12 -28
t5 -33.5t1 -41q-110 -2 -182.5 -53t-72.5 -141q0 -67 35.5 -101.5t93.5 -34.5zM298 260v-120q-7 -16 -28 -34t-46 -18q-21 0 -40 15t-19 43q0 61 38.5 87.5t94.5 26.5zM208 572q-21 -7 -27.5 -1t4.5 22q50 70 84 141q10 20 19 22q5 1 12 -1q27 -7 50 -35q16 -21 1 -42
q-54 -74 -143 -106z" />
    <glyph glyph-name="acircumflex" unicode="&#xe2;" horiz-adv-x="491" 
d="M172 0q80 0 132 52q23 -49 93 -49q59 0 85 24t26 46q0 6 -4.5 10.5t-9.5 4.5q-6 0 -18 -6t-20 -6q-28 0 -31 42q0 3 0.5 32.5t1.5 63t1 39.5v130q0 143 -188 143q-159 0 -159 -84q0 -26 7.5 -45t21.5 -19q11 0 24 19t34.5 38.5t53.5 19.5q21 0 35.5 -6.5t22.5 -16t12 -28
t5 -33.5t1 -41q-110 -2 -182.5 -53t-72.5 -141q0 -67 35.5 -101.5t93.5 -34.5zM298 260v-120q-7 -16 -28 -34t-46 -18q-21 0 -40 15t-19 43q0 61 38.5 87.5t94.5 26.5zM119 571q-22 -4 -28 3t8 21q57 60 102 128q19 27 38 27q25 0 44 -27q62 -85 102 -128q14 -14 8 -21
t-28 -3q-61 12 -123 67q-64 -55 -123 -67z" />
    <glyph glyph-name="atilde" unicode="&#xe3;" horiz-adv-x="491" 
d="M172 0q80 0 132 52q23 -49 93 -49q59 0 85 24t26 46q0 6 -4.5 10.5t-9.5 4.5q-6 0 -18 -6t-20 -6q-28 0 -31 42q0 3 0.5 32.5t1.5 63t1 39.5v130q0 143 -188 143q-159 0 -159 -84q0 -26 7.5 -45t21.5 -19q11 0 24 19t34.5 38.5t53.5 19.5q21 0 35.5 -6.5t22.5 -16t12 -28
t5 -33.5t1 -41q-110 -2 -182.5 -53t-72.5 -141q0 -67 35.5 -101.5t93.5 -34.5zM298 260v-120q-7 -16 -28 -34t-46 -18q-21 0 -40 15t-19 43q0 61 38.5 87.5t94.5 26.5zM243 701q30 -15 53 -15q24 0 48 24q7 6 12.5 6t8 -7.5t1.5 -20.5q-6 -44 -26 -66.5t-48 -22.5
q-25 0 -49 12q-30 15 -53 15q-24 0 -48 -24q-4 -4 -7.5 -5.5t-6.5 0t-5 5t-3 9t0 13.5q6 44 26 66.5t48 22.5q25 0 49 -12z" />
    <glyph glyph-name="adieresis" unicode="&#xe4;" horiz-adv-x="491" 
d="M172 0q80 0 132 52q23 -49 93 -49q59 0 85 24t26 46q0 6 -4.5 10.5t-9.5 4.5q-6 0 -18 -6t-20 -6q-28 0 -31 42q0 3 0.5 32.5t1.5 63t1 39.5v130q0 143 -188 143q-159 0 -159 -84q0 -26 7.5 -45t21.5 -19q11 0 24 19t34.5 38.5t53.5 19.5q21 0 35.5 -6.5t22.5 -16t12 -28
t5 -33.5t1 -41q-110 -2 -182.5 -53t-72.5 -141q0 -67 35.5 -101.5t93.5 -34.5zM298 260v-120q-7 -16 -28 -34t-46 -18q-21 0 -40 15t-19 43q0 61 38.5 87.5t94.5 26.5zM171 591q-25 0 -43.5 18.5t-18.5 43.5q0 26 18 44.5t44 18.5t44.5 -18.5t18.5 -44.5t-18.5 -44
t-44.5 -18zM334 591q-26 0 -44 18.5t-18 43.5q0 26 18 44.5t44 18.5t44.5 -18.5t18.5 -44.5t-18.5 -44t-44.5 -18z" />
    <glyph glyph-name="aring" unicode="&#xe5;" horiz-adv-x="491" 
d="M172 0q80 0 132 52q23 -49 93 -49q59 0 85 24t26 46q0 6 -4.5 10.5t-9.5 4.5q-6 0 -18 -6t-20 -6q-28 0 -31 42q0 3 0.5 32.5t1.5 63t1 39.5v130q0 143 -188 143q-159 0 -159 -84q0 -26 7.5 -45t21.5 -19q11 0 24 19t34.5 38.5t53.5 19.5q21 0 35.5 -6.5t22.5 -16t12 -28
t5 -33.5t1 -41q-110 -2 -182.5 -53t-72.5 -141q0 -67 35.5 -101.5t93.5 -34.5zM298 260v-120q-7 -16 -28 -34t-46 -18q-21 0 -40 15t-19 43q0 61 38.5 87.5t94.5 26.5zM158 662q0 37 25 62.5t63 25.5t63 -25.5t25 -62.5t-25 -62.5t-63 -25.5t-63 25.5t-25 62.5zM197 662
q0 -22 13.5 -36.5t35.5 -14.5t35.5 14.5t13.5 36.5t-13.5 36.5t-35.5 14.5t-35.5 -14.5t-13.5 -36.5z" />
    <glyph glyph-name="ae" unicode="&#xe6;" horiz-adv-x="751" 
d="M537 -11q-140 0 -196 84q-68 -73 -163 -73q-58 0 -96.5 35t-38.5 101q0 90 72.5 141t182.5 53q0 26 -1 41t-5 33.5t-12 28t-22.5 16t-35.5 6.5q-25 0 -44 -12t-28.5 -26.5t-20 -26.5t-19.5 -12q-14 0 -21.5 19t-7.5 45q0 84 159 84q102 0 149 -43q56 42 141 42
q104 0 149 -47.5t45 -121.5q0 -90 -70.5 -133.5t-215.5 -32.5q11 -59 41 -86t86 -27q36 0 59 6.5t52 26.5q13 8 21 -1t10 -27q2 -25 -4 -37.5t-24 -23.5q-55 -32 -142 -32zM433 268v-13q93 -1 131.5 24.5t38.5 77.5q0 41 -19.5 67t-58.5 26q-92 0 -92 -182zM224 88
q25 0 49 17t37 43q-11 47 -11 108v4q-56 0 -95 -26.5t-39 -87.5q0 -28 19 -43t40 -15z" />
    <glyph glyph-name="ccedilla" unicode="&#xe7;" horiz-adv-x="466" 
d="M199 -76q0 26 30 68q-190 26 -190 265q0 134 74.5 201t182.5 67t144 -50q20 -28 5 -77q-6 -19 -17 -22t-29 17q-36 46 -99 46q-61 0 -94 -46t-33 -136q0 -89 35 -134.5t97 -45.5q33 0 54.5 6.5t52.5 27.5q13 9 23 1.5t12 -30.5q2 -25 -4 -37.5t-24 -23.5
q-55 -32 -142 -32h-11q-15 -21 -15 -38q0 -9 15 -15t33.5 -10t33.5 -19.5t15 -42.5q0 -42 -30 -68.5t-83 -26.5q-46 0 -65 15q-16 13 -13 36t19 13q18 -12 56 -12q25 0 37 11.5t12 23.5q0 13 -13 20.5t-28 10.5t-28 12t-13 25z" />
    <glyph glyph-name="egrave" unicode="&#xe8;" horiz-adv-x="491" 
d="M305 77q33 0 54.5 6.5t52.5 27.5q13 9 23 1.5t12 -30.5q2 -25 -4 -37.5t-24 -23.5q-55 -32 -142 -32q-116 0 -177 60.5t-61 206.5q0 125 58 197t173 72q104 0 149 -47.5t45 -121.5q0 -90 -70.5 -133.5t-215.5 -32.5q11 -59 41 -86t86 -27zM173 268v-13q93 -1 131.5 24.5
t38.5 77.5q0 41 -19.5 67t-58.5 26q-92 0 -92 -182zM313 572q-89 32 -143 106q-15 21 1 42q23 28 50 35q13 4 18.5 -1.5t12.5 -19.5q34 -71 84 -141q11 -16 4.5 -22t-27.5 1z" />
    <glyph glyph-name="eacute" unicode="&#xe9;" horiz-adv-x="491" 
d="M305 77q33 0 54.5 6.5t52.5 27.5q13 9 23 1.5t12 -30.5q2 -25 -4 -37.5t-24 -23.5q-55 -32 -142 -32q-116 0 -177 60.5t-61 206.5q0 125 58 197t173 72q104 0 149 -47.5t45 -121.5q0 -90 -70.5 -133.5t-215.5 -32.5q11 -59 41 -86t86 -27zM173 268v-13q93 -1 131.5 24.5
t38.5 77.5q0 41 -19.5 67t-58.5 26q-92 0 -92 -182zM187 572q-21 -7 -27.5 -1t4.5 22q50 70 84 141q10 20 19 22q5 1 12 -1q27 -7 50 -35q16 -21 1 -42q-54 -74 -143 -106z" />
    <glyph glyph-name="ecircumflex" unicode="&#xea;" horiz-adv-x="491" 
d="M305 77q33 0 54.5 6.5t52.5 27.5q13 9 23 1.5t12 -30.5q2 -25 -4 -37.5t-24 -23.5q-55 -32 -142 -32q-116 0 -177 60.5t-61 206.5q0 125 58 197t173 72q104 0 149 -47.5t45 -121.5q0 -90 -70.5 -133.5t-215.5 -32.5q11 -59 41 -86t86 -27zM173 268v-13q93 -1 131.5 24.5
t38.5 77.5q0 41 -19.5 67t-58.5 26q-92 0 -92 -182zM122 571q-22 -4 -28 3t8 21q57 60 102 128q19 27 38 27q25 0 44 -27q62 -85 102 -128q14 -14 8 -21t-28 -3q-61 12 -123 67q-64 -55 -123 -67z" />
    <glyph glyph-name="edieresis" unicode="&#xeb;" horiz-adv-x="491" 
d="M305 77q33 0 54.5 6.5t52.5 27.5q13 9 23 1.5t12 -30.5q2 -25 -4 -37.5t-24 -23.5q-55 -32 -142 -32q-116 0 -177 60.5t-61 206.5q0 125 58 197t173 72q104 0 149 -47.5t45 -121.5q0 -90 -70.5 -133.5t-215.5 -32.5q11 -59 41 -86t86 -27zM173 268v-13q93 -1 131.5 24.5
t38.5 77.5q0 41 -19.5 67t-58.5 26q-92 0 -92 -182zM163 591q-25 0 -43.5 18.5t-18.5 43.5q0 26 18 44.5t44 18.5t44.5 -18.5t18.5 -44.5t-18.5 -44t-44.5 -18zM326 591q-26 0 -44 18.5t-18 43.5q0 26 18 44.5t44 18.5t44.5 -18.5t18.5 -44.5t-18.5 -44t-44.5 -18z" />
    <glyph glyph-name="igrave" unicode="&#xec;" horiz-adv-x="259" 
d="M49 488q0 25 75 25q32 0 52 -15.5t20 -46.5v-200q0 -10 -2 -72t-2 -64q0 -41 32 -41q9 0 20.5 5.5t16.5 5.5t10 -4t5 -10q0 -22 -26.5 -46.5t-85.5 -24.5q-42 0 -70.5 22t-28.5 60q0 2 0.5 33t0.5 77.5v86.5q0 61 -4 109t-8.5 72.5t-4.5 27.5zM188 572q-89 32 -143 106
q-15 21 1 42q23 28 50 35q13 4 18.5 -1.5t12.5 -19.5q34 -71 84 -141q11 -16 4.5 -22t-27.5 1z" />
    <glyph glyph-name="iacute" unicode="&#xed;" horiz-adv-x="259" 
d="M49 488q0 -3 4.5 -27.5t8.5 -72.5t4 -109v-86.5t-0.5 -77.5t-0.5 -33q0 -38 28.5 -60t70.5 -22q59 0 85.5 24.5t26.5 46.5q0 6 -5 10t-10 4t-16.5 -5.5t-20.5 -5.5q-32 0 -32 41q0 2 2 64t2 72v200q0 31 -20 46.5t-52 15.5q-75 0 -75 -25zM72 572q-21 -7 -27.5 -1t4.5 22
q50 70 84 141q10 20 19 22q5 1 12 -1q27 -7 50 -35q16 -21 1 -42q-54 -74 -143 -106z" />
    <glyph glyph-name="icircumflex" unicode="&#xee;" horiz-adv-x="259" 
d="M49 488q0 -3 4.5 -27.5t8.5 -72.5t4 -109v-86.5t-0.5 -77.5t-0.5 -33q0 -38 28.5 -60t70.5 -22q59 0 85.5 24.5t26.5 46.5q0 6 -5 10t-10 4t-16.5 -5.5t-20.5 -5.5q-32 0 -32 41q0 2 2 64t2 72v200q0 31 -20 46.5t-52 15.5q-75 0 -75 -25zM7 571q-22 -4 -28 3t8 21
q57 60 102 128q19 27 38 27q25 0 44 -27q62 -85 102 -128q14 -14 8 -21t-28 -3q-61 12 -123 67q-64 -55 -123 -67z" />
    <glyph glyph-name="idieresis" unicode="&#xef;" horiz-adv-x="259" 
d="M49 488q0 -3 4.5 -27.5t8.5 -72.5t4 -109v-86.5t-0.5 -77.5t-0.5 -33q0 -38 28.5 -60t70.5 -22q59 0 85.5 24.5t26.5 46.5q0 6 -5 10t-10 4t-16.5 -5.5t-20.5 -5.5q-32 0 -32 41q0 2 2 64t2 72v200q0 31 -20 46.5t-52 15.5q-75 0 -75 -25zM48 591q-26 0 -44 18.5
t-18 43.5q0 26 18 44.5t44 18.5t44.5 -18.5t18.5 -44.5t-18.5 -44t-44.5 -18zM211 591q-25 0 -43.5 18.5t-18.5 43.5q0 26 18 44.5t44 18.5t44.5 -18.5t18.5 -44.5t-18.5 -44t-44.5 -18z" />
    <glyph glyph-name="ntilde" unicode="&#xf1;" horiz-adv-x="566" 
d="M194 236q0 -20 2.5 -85.5t2.5 -71.5q0 -14 7 -29.5t7 -21.5q0 -11 -23 -19.5t-49 -8.5q-28 0 -52 16t-24 56q0 25 0.5 113.5t0.5 94.5q0 61 -4 109t-8.5 72.5t-4.5 27.5q0 25 74 25q63 0 72 -51q45 63 138 63q45 0 78 -16t50.5 -40.5t27.5 -63t12.5 -73.5t1.5 -82
q0 -10 -2 -72t-2 -64q0 -41 32 -41q9 0 20.5 5.5t16.5 5.5t10 -4t5 -10q0 -22 -26.5 -46.5t-85.5 -24.5q-42 0 -70.5 22t-28.5 60v24t0.5 59.5t0.5 77.5q0 50 -2 77t-10 56t-26.5 41.5t-48.5 12.5q-59 0 -76 -45t-16 -149zM283 701q30 -15 53 -15q24 0 48 24q7 6 12.5 6
t8 -7.5t1.5 -20.5q-6 -44 -26 -66.5t-48 -22.5q-25 0 -49 12q-30 15 -53 15q-24 0 -48 -24q-4 -4 -7.5 -5.5t-6.5 0t-5 5t-3 9t0 13.5q6 44 26 66.5t48 22.5q25 0 49 -12z" />
    <glyph glyph-name="ograve" unicode="&#xf2;" horiz-adv-x="526" 
d="M352 257q0 44 -3 75.5t-12 59t-27.5 41.5t-46.5 14t-46.5 -13.5t-27 -42t-12 -58.5t-3.5 -76q0 -45 3 -75.5t12 -58.5t27.5 -42t46.5 -14t46.5 13.5t27 42t12 58.5t3.5 76zM263 525q224 0 224 -268t-224 -268t-224 268t224 268zM321 572q-89 32 -143 106q-15 21 1 42
q23 28 50 35q13 4 18.5 -1.5t12.5 -19.5q34 -71 84 -141q11 -16 4.5 -22t-27.5 1z" />
    <glyph glyph-name="oacute" unicode="&#xf3;" horiz-adv-x="526" 
d="M352 257q0 44 -3 75.5t-12 59t-27.5 41.5t-46.5 14t-46.5 -13.5t-27 -42t-12 -58.5t-3.5 -76q0 -45 3 -75.5t12 -58.5t27.5 -42t46.5 -14t46.5 13.5t27 42t12 58.5t3.5 76zM263 525q224 0 224 -268t-224 -268t-224 268t224 268zM205 572q-21 -7 -27.5 -1t4.5 22
q50 70 84 141q10 20 19 22q5 1 12 -1q27 -7 50 -35q16 -21 1 -42q-54 -74 -143 -106z" />
    <glyph glyph-name="ocircumflex" unicode="&#xf4;" horiz-adv-x="526" 
d="M352 257q0 44 -3 75.5t-12 59t-27.5 41.5t-46.5 14t-46.5 -13.5t-27 -42t-12 -58.5t-3.5 -76q0 -45 3 -75.5t12 -58.5t27.5 -42t46.5 -14t46.5 13.5t27 42t12 58.5t3.5 76zM263 525q224 0 224 -268t-224 -268t-224 268t224 268zM140 571q-22 -4 -28 3t8 21q57 60 102 128
q19 27 38 27q25 0 44 -27q62 -85 102 -128q14 -14 8 -21t-28 -3q-61 12 -123 67q-64 -55 -123 -67z" />
    <glyph glyph-name="otilde" unicode="&#xf5;" horiz-adv-x="526" 
d="M352 257q0 44 -3 75.5t-12 59t-27.5 41.5t-46.5 14t-46.5 -13.5t-27 -42t-12 -58.5t-3.5 -76q0 -45 3 -75.5t12 -58.5t27.5 -42t46.5 -14t46.5 13.5t27 42t12 58.5t3.5 76zM263 525q224 0 224 -268t-224 -268t-224 268t224 268zM263 701q30 -15 53 -15q24 0 48 24
q7 6 12.5 6t8 -7.5t1.5 -20.5q-6 -44 -26 -66.5t-48 -22.5q-25 0 -49 12q-30 15 -53 15q-24 0 -48 -24q-4 -4 -7.5 -5.5t-6.5 0t-5 5t-3 9t0 13.5q6 44 26 66.5t48 22.5q25 0 49 -12z" />
    <glyph glyph-name="odieresis" unicode="&#xf6;" horiz-adv-x="526" 
d="M352 257q0 44 -3 75.5t-12 59t-27.5 41.5t-46.5 14t-46.5 -13.5t-27 -42t-12 -58.5t-3.5 -76q0 -45 3 -75.5t12 -58.5t27.5 -42t46.5 -14t46.5 13.5t27 42t12 58.5t3.5 76zM263 525q224 0 224 -268t-224 -268t-224 268t224 268zM181 591q-25 0 -43.5 18.5t-18.5 43.5
q0 26 18 44.5t44 18.5t44.5 -18.5t18.5 -44.5t-18.5 -44t-44.5 -18zM344 591q-26 0 -44 18.5t-18 43.5q0 26 18 44.5t44 18.5t44.5 -18.5t18.5 -44.5t-18.5 -44t-44.5 -18z" />
    <glyph glyph-name="oslash" unicode="&#xf8;" horiz-adv-x="526" 
d="M233 -63q0 -1 -4 -33q-4 -16 -31 -10q-17 5 -28 18.5t-7 32.5l12 57q-136 44 -136 255q0 268 224 268q12 0 18 -1q5 44 7 80q1 9 18 10.5t24 -1.5q40 -10 33 -44l-12 -57q136 -46 136 -255q0 -268 -224 -268q-13 0 -20 1zM174 257q0 -111 23 -152l69 331q2 8 2 11h-5
q-28 0 -46.5 -13.5t-27 -42t-12 -58.5t-3.5 -76zM352 257q0 112 -22 151l-71 -341h4q28 0 46.5 13.5t27 42t12 58.5t3.5 76z" />
    <glyph glyph-name="ugrave" unicode="&#xf9;" horiz-adv-x="568" 
d="M372 63q-45 -63 -138 -63q-45 0 -77.5 16.5t-50 40t-27.5 63t-12.5 73.5t-2.5 82q0 61 -2.5 110.5t-5 75t-2.5 28.5q0 25 74 25q29 0 48.5 -15.5t19.5 -43.5q0 -42 -1 -90t-1 -82q0 -50 2 -77t10 -56t26.5 -41.5t48.5 -12.5q59 0 76 45t16 149q0 20 -2.5 85.5t-2.5 71.5
q0 14 -7 29.5t-7 21.5q0 11 23 19.5t49 8.5q28 0 52 -16t24 -56q0 -25 -0.5 -95t-0.5 -76q0 -133 4 -168q2 -23 7.5 -32t20.5 -9q9 0 20.5 5.5t16.5 5.5t10 -4t5 -10q0 -9 -4.5 -19.5t-15 -23t-33.5 -20.5t-55 -8q-42 0 -66.5 14.5t-38.5 48.5zM342 572q-89 32 -143 106
q-15 21 1 42q23 28 50 35q13 4 18.5 -1.5t12.5 -19.5q34 -71 84 -141q11 -16 4.5 -22t-27.5 1z" />
    <glyph glyph-name="uacute" unicode="&#xfa;" horiz-adv-x="568" 
d="M372 63q-45 -63 -138 -63q-45 0 -77.5 16.5t-50 40t-27.5 63t-12.5 73.5t-2.5 82q0 61 -2.5 110.5t-5 75t-2.5 28.5q0 25 74 25q29 0 48.5 -15.5t19.5 -43.5q0 -42 -1 -90t-1 -82q0 -50 2 -77t10 -56t26.5 -41.5t48.5 -12.5q59 0 76 45t16 149q0 20 -2.5 85.5t-2.5 71.5
q0 14 -7 29.5t-7 21.5q0 11 23 19.5t49 8.5q28 0 52 -16t24 -56q0 -25 -0.5 -95t-0.5 -76q0 -133 4 -168q2 -23 7.5 -32t20.5 -9q9 0 20.5 5.5t16.5 5.5t10 -4t5 -10q0 -9 -4.5 -19.5t-15 -23t-33.5 -20.5t-55 -8q-42 0 -66.5 14.5t-38.5 48.5zM226 572q-21 -7 -27.5 -1
t4.5 22q50 70 84 141q10 20 19 22q5 1 12 -1q27 -7 50 -35q16 -21 1 -42q-54 -74 -143 -106z" />
    <glyph glyph-name="ucircumflex" unicode="&#xfb;" horiz-adv-x="568" 
d="M372 63q-45 -63 -138 -63q-45 0 -77.5 16.5t-50 40t-27.5 63t-12.5 73.5t-2.5 82q0 61 -2.5 110.5t-5 75t-2.5 28.5q0 25 74 25q29 0 48.5 -15.5t19.5 -43.5q0 -42 -1 -90t-1 -82q0 -50 2 -77t10 -56t26.5 -41.5t48.5 -12.5q59 0 76 45t16 149q0 20 -2.5 85.5t-2.5 71.5
q0 14 -7 29.5t-7 21.5q0 11 23 19.5t49 8.5q28 0 52 -16t24 -56q0 -25 -0.5 -95t-0.5 -76q0 -133 4 -168q2 -23 7.5 -32t20.5 -9q9 0 20.5 5.5t16.5 5.5t10 -4t5 -10q0 -9 -4.5 -19.5t-15 -23t-33.5 -20.5t-55 -8q-42 0 -66.5 14.5t-38.5 48.5zM161 571q-22 -4 -28 3t8 21
q57 60 102 128q19 27 38 27q25 0 44 -27q62 -85 102 -128q14 -14 8 -21t-28 -3q-61 12 -123 67q-64 -55 -123 -67z" />
    <glyph glyph-name="udieresis" unicode="&#xfc;" horiz-adv-x="568" 
d="M372 63q-45 -63 -138 -63q-45 0 -77.5 16.5t-50 40t-27.5 63t-12.5 73.5t-2.5 82q0 61 -2.5 110.5t-5 75t-2.5 28.5q0 25 74 25q29 0 48.5 -15.5t19.5 -43.5q0 -42 -1 -90t-1 -82q0 -50 2 -77t10 -56t26.5 -41.5t48.5 -12.5q59 0 76 45t16 149q0 20 -2.5 85.5t-2.5 71.5
q0 14 -7 29.5t-7 21.5q0 11 23 19.5t49 8.5q28 0 52 -16t24 -56q0 -25 -0.5 -95t-0.5 -76q0 -133 4 -168q2 -23 7.5 -32t20.5 -9q9 0 20.5 5.5t16.5 5.5t10 -4t5 -10q0 -9 -4.5 -19.5t-15 -23t-33.5 -20.5t-55 -8q-42 0 -66.5 14.5t-38.5 48.5zM202 591q-26 0 -44 18.5
t-18 43.5q0 26 18 44.5t44 18.5t44.5 -18.5t18.5 -44.5t-18.5 -44t-44.5 -18zM365 591q-25 0 -43.5 18.5t-18.5 43.5q0 26 18 44.5t44 18.5t44.5 -18.5t18.5 -44.5t-18.5 -44t-44.5 -18z" />
    <glyph glyph-name="yacute" unicode="&#xfd;" horiz-adv-x="505" 
d="M79 -100q50 0 92.5 45.5t48.5 70.5q-34 13 -63.5 59.5t-40.5 95.5q-6 30 -32.5 127.5t-45.5 143.5q-7 17 -20.5 31.5t-13.5 20.5q0 12 19 21t55 9q41 0 63 -18t33 -56q1 -5 6.5 -30t13.5 -62t16 -69q36 -142 53 -176q1 -2 3 -2t3 2q0 2 14 57.5t27.5 107.5t28 105.5
t20.5 66.5q31 73 97 73q45 0 45 -22q0 -10 -9 -19q-7 -7 -12 -13.5t-8.5 -11.5t-7 -14t-5.5 -13.5t-6.5 -17.5t-7.5 -20q-7 -17 -43 -136t-77 -220.5t-85 -153.5q-7 -9 -18.5 -20t-32.5 -27.5t-49 -27t-57 -10.5q-51 0 -71 25t-20 76q0 14 6 22t15 8q5 0 24 -14t42 -14z
M194 572q-21 -7 -27.5 -1t4.5 22q50 70 84 141q10 20 19 22q5 1 12 -1q27 -7 50 -35q16 -21 1 -42q-54 -74 -143 -106z" />
    <glyph glyph-name="thorn" unicode="&#xfe;" horiz-adv-x="553" 
d="M201 644q0 -107 -1 -175q45 56 135 56q100 0 138 -66t38 -197q0 -128 -43 -195t-144 -67q-83 0 -125 42q1 -38 2.5 -82t2.5 -67t1 -27q0 -14 7 -29.5t7 -21.5q0 -11 -25.5 -19.5t-51.5 -8.5q-28 0 -52 16t-24 56q0 28 1.5 211t1.5 211q0 275 -16 411q-3 25 74 25
q74 0 74 -73zM290 432q-55 0 -73.5 -40.5t-18.5 -129.5t18.5 -129.5t73.5 -40.5q29 0 47 11.5t26.5 37t11 52t2.5 69.5q1 87 -15.5 128.5t-71.5 41.5z" />
    <glyph glyph-name="ydieresis" unicode="&#xff;" horiz-adv-x="505" 
d="M79 -100q50 0 92.5 45.5t48.5 70.5q-34 13 -63.5 59.5t-40.5 95.5q-6 30 -32.5 127.5t-45.5 143.5q-7 17 -20.5 31.5t-13.5 20.5q0 12 19 21t55 9q41 0 63 -18t33 -56q1 -5 6.5 -30t13.5 -62t16 -69q36 -142 53 -176q1 -2 3 -2t3 2q0 2 14 57.5t27.5 107.5t28 105.5
t20.5 66.5q31 73 97 73q45 0 45 -22q0 -10 -9 -19q-7 -7 -12 -13.5t-8.5 -11.5t-7 -14t-5.5 -13.5t-6.5 -17.5t-7.5 -20q-7 -17 -43 -136t-77 -220.5t-85 -153.5q-7 -9 -18.5 -20t-32.5 -27.5t-49 -27t-57 -10.5q-51 0 -71 25t-20 76q0 14 6 22t15 8q5 0 24 -14t42 -14z
M170 591q-26 0 -44 18.5t-18 43.5q0 26 18 44.5t44 18.5t44.5 -18.5t18.5 -44.5t-18.5 -44t-44.5 -18zM333 591q-25 0 -43.5 18.5t-18.5 43.5q0 26 18 44.5t44 18.5t44.5 -18.5t18.5 -44.5t-18.5 -44t-44.5 -18z" />
    <glyph glyph-name="dotlessi" unicode="&#x131;" horiz-adv-x="259" 
d="M49 488q0 25 75 25q32 0 52 -15.5t20 -46.5v-200q0 -10 -2 -72t-2 -64q0 -41 32 -41q9 0 20.5 5.5t16.5 5.5t10 -4t5 -10q0 -22 -26.5 -46.5t-85.5 -24.5q-42 0 -70.5 22t-28.5 60q0 2 0.5 33t0.5 77.5v86.5q0 61 -4 109t-8.5 72.5t-4.5 27.5z" />
    <glyph glyph-name="Lslash" unicode="&#x141;" horiz-adv-x="613" 
d="M213 648l-3 -188q20 13 49 36q14 12 22 10.5t17 -19.5q14 -29 14 -50q0 -16 -15 -29t-47 -33q-3 -1 -5 -2.5t-4 -2.5l-32 -19q-1 -79 -1 -264q232 2 361 24q12 2 15 -2.5t3 -15.5q0 -60 -14 -75q-7 -7 -16 -11t-29 -5.5t-30 -1.5h-43h-367q-21 0 -26.5 7t-4.5 20
q8 114 11 242q-23 -14 -53 -37q-14 -12 -22 -10.5t-17 19.5q-14 29 -14 50q0 16 15 29t47 33q3 1 5 2.5t4 2.5q3 1 9.5 5t13.5 8t13 7v23q0 152 -21 278q-2 10 14.5 17.5t34.5 10t32 2.5q36 0 60 -15.5t24 -45.5z" />
    <glyph glyph-name="lslash" unicode="&#x142;" horiz-adv-x="262" 
d="M52 692q0 25 75 25q32 0 52 -15.5t20 -46.5v-70.5v-86.5v-43v-3q30 20 60 44q14 12 22 10.5t17 -19.5q14 -29 14 -50q-1 -12 -11.5 -23.5t-22 -19.5t-37.5 -24q-38 -23 -44 -26q-2 -224 -1 -229q3 -41 31 -41q9 0 21 5.5t17 5.5t9.5 -4t4.5 -10q0 -22 -26 -46.5
t-85 -24.5q-43 0 -71 22t-28 60v188q-41 -27 -54 -38q-14 -12 -22 -10.5t-17 19.5q-14 29 -14 50q1 12 11.5 23.5t22 19.5t37.5 24q3 1 9.5 5t13.5 8t13 7v105q0 61 -4.5 109t-8.5 72.5t-4 27.5z" />
    <glyph glyph-name="OE" unicode="&#x152;" horiz-adv-x="1091" 
d="M578 709q356 -7 444 0q12 1 15 -4t3 -16q0 -55 -15 -73q-8 -9 -24 -13.5t-30.5 -5t-48.5 -0.5h-14q-93 0 -210 18q0 -32 0.5 -107.5t0.5 -105.5q201 -2 276 13q12 2 15 -3t3 -17q0 -54 -15 -73q-11 -12 -29 -15t-63 -3q-43 0 -188 11q-1 -44 -3.5 -131t-2.5 -97
q227 2 354 24q12 2 15 -2.5t3 -15.5q0 -60 -14 -75q-7 -7 -16 -11t-29 -5.5t-30 -1.5h-43h-354q-21 0 -26.5 7t-4.5 20q-71 -38 -176 -38q-171 0 -249.5 97.5t-78.5 267.5q0 171 78.5 268.5t249.5 97.5q103 0 176 -39v1q-1 8 0.5 13t9 9.5t21.5 4.5zM544 354q0 277 -173 277
q-51 0 -86 -21.5t-53.5 -62t-26 -87t-7.5 -106.5t7.5 -106.5t26 -86.5t53.5 -61.5t86 -21.5q173 0 173 276z" />
    <glyph glyph-name="oe" unicode="&#x153;" horiz-adv-x="805" 
d="M619 77q33 0 54.5 6.5t52.5 27.5q13 9 23 1.5t12 -30.5q2 -25 -4 -37.5t-24 -23.5q-55 -32 -142 -32q-114 0 -171 54q-56 -54 -157 -54q-224 0 -224 268t224 268q104 0 160 -58q60 58 161 58q104 0 149 -47.5t45 -121.5q0 -90 -70.5 -133.5t-215.5 -32.5q11 -59 41 -86
t86 -27zM352 257q0 44 -3 75.5t-12 59t-27.5 41.5t-46.5 14t-46.5 -13.5t-27 -42t-12 -58.5t-3.5 -76q0 -45 3 -75.5t12 -58.5t27.5 -42t46.5 -14t46.5 13.5t27 42t12 58.5t3.5 76zM487 268v-13q93 -1 131.5 24.5t38.5 77.5q0 41 -19.5 67t-58.5 26q-92 0 -92 -182z" />
    <glyph glyph-name="Scaron" unicode="&#x160;" horiz-adv-x="575" 
d="M245 89q69 0 113.5 22t44.5 73q0 32 -22.5 52.5t-47.5 29.5t-98 29q-4 1 -6 2q-94 25 -138 74t-44 150q0 89 62 144t188 55q166 0 212 -65q22 -32 5 -84q-13 -40 -53 -6q-63 55 -147 55q-61 0 -97.5 -22t-36.5 -68q0 -21 6.5 -36.5t17.5 -26t31.5 -19t43 -15t57.5 -15.5
q13 -3 20 -5q94 -24 137 -67.5t43 -136.5q0 -100 -73 -160t-207 -60q-69 0 -124 15.5t-78 43.5q-25 31 -10 87q7 23 24 23.5t36 -18.5q64 -51 141 -51zM407 935q22 4 28 -3t-8 -21q-57 -60 -102 -128q-19 -27 -38 -27q-25 0 -44 27q-62 85 -102 128q-14 14 -8 21t28 3
q61 -12 123 -67q64 55 123 67z" />
    <glyph glyph-name="scaron" unicode="&#x161;" horiz-adv-x="445" 
d="M239 525q124 0 159 -49q21 -30 5 -77q-6 -18 -17 -20.5t-29 15.5q-38 44 -101 44q-40 0 -64 -15t-24 -44q0 -26 18.5 -41.5t46 -21.5t60 -16t60 -23t46 -44t18.5 -78q0 -75 -51 -120.5t-148 -45.5q-124 0 -160 44q-20 24 -7 72q12 40 52 5q40 -34 98 -34q100 0 100 64
q0 27 -25.5 40.5t-62 21t-73.5 21t-62.5 50t-25.5 97.5q0 69 46 112t141 43zM362 749q22 4 28 -3t-8 -21q-57 -60 -102 -128q-19 -27 -38 -27q-25 0 -44 27q-62 85 -102 128q-14 14 -8 21t28 3q61 -12 123 -67q64 55 123 67z" />
    <glyph glyph-name="Ydieresis" unicode="&#x178;" horiz-adv-x="629" 
d="M381 81q0 -6 3 -26.5t3 -28.5q0 -26 -60 -26q-36 0 -63 18.5t-27 50.5q0 31 1.5 97.5t1.5 93.5q-39 28 -69 88t-61.5 143.5t-57.5 129.5q-6 11 -26 28t-20 31q0 13 21 21t48 8q85 0 120 -62q23 -42 67 -157.5t70 -150.5q28 37 69 147t69 161q20 36 43 49t60 13
q20 0 35 -6.5t15 -16.5q0 -9 -4 -15t-11 -11t-21 -21t-29 -40q-27 -43 -57.5 -120.5t-58.5 -135.5t-61 -82v-53v-66.5v-60.5zM232 777q-26 0 -44 18.5t-18 43.5q0 26 18 44.5t44 18.5t44.5 -18.5t18.5 -44.5t-18.5 -44t-44.5 -18zM395 777q-25 0 -43.5 18.5t-18.5 43.5
q0 26 18 44.5t44 18.5t44.5 -18.5t18.5 -44.5t-18.5 -44t-44.5 -18z" />
    <glyph glyph-name="Zcaron" unicode="&#x17d;" horiz-adv-x="599" 
d="M54 4q-30 0 -38 34q-7 37 -3.5 51t19.5 32q98 118 187 254q105 161 150 233q-101 -11 -204 -11q-55 0 -82.5 4t-40.5 18q-15 16 -15 54q0 23 8 30.5t30 6.5q43 -2 129.5 -2.5t195.5 0.5t130 1q31 0 38 -36q10 -52 -16 -82q-79 -90 -172 -233q-126 -194 -164 -256
q110 12 236 12q55 0 82.5 -4t40.5 -18q15 -16 15 -54q0 -23 -8 -30.5t-30 -6.5q-58 3 -488 3zM419 935q22 4 28 -3t-8 -21q-57 -60 -102 -128q-19 -27 -38 -27q-25 0 -44 27q-62 85 -102 128q-14 14 -8 21t28 3q61 -12 123 -67q64 55 123 67z" />
    <glyph glyph-name="zcaron" unicode="&#x17e;" horiz-adv-x="505" 
d="M63 3q-25 0 -31 26q-9 36 13 59q69 74 151 185q76 105 113 159q-85 -11 -141 -11q-95 0 -113 19q-14 14 -14 46q0 20 7.5 26.5t27.5 5.5q22 -1 362 -1q25 0 31 -29q8 -36 -13 -57q-58 -58 -139 -170q-98 -136 -124 -175q93 12 167 12q95 0 113 -19q14 -14 14 -46
q0 -20 -7.5 -26.5t-27.5 -5.5q-44 2 -389 2zM372 749q22 4 28 -3t-8 -21q-57 -60 -102 -128q-19 -27 -38 -27q-25 0 -44 27q-62 85 -102 128q-14 14 -8 21t28 3q61 -12 123 -67q64 55 123 67z" />
    <glyph glyph-name="circumflex" unicode="&#x2c6;" 
d="M74 571q-22 -4 -28 3t8 21q57 60 102 128q19 27 38 27q25 0 44 -27q62 -85 102 -128q14 -14 8 -21t-28 -3q-61 12 -123 67q-64 -55 -123 -67z" />
    <glyph glyph-name="caron" unicode="&#x2c7;" 
d="M323 749q22 4 28 -3t-8 -21q-57 -60 -102 -128q-19 -27 -38 -27q-25 0 -44 27q-62 85 -102 128q-14 14 -8 21t28 3q61 -12 123 -67q64 55 123 67z" />
    <glyph glyph-name="breve" unicode="&#x2d8;" 
d="M200 568q-64 0 -110 40.5t-46 114.5q0 21 32 21l39 -5v-21q0 -37 22 -65t63 -28q39 0 61.5 28t22.5 66v20q20 5 35 5q37 0 37 -21q0 -74 -46 -114.5t-110 -40.5z" />
    <glyph glyph-name="dotaccent" unicode="&#x2d9;" 
d="M199 595q-27 0 -47 20t-20 47q0 28 20 48t47 20q28 0 48 -20t20 -48q0 -27 -20 -47t-48 -20z" />
    <glyph glyph-name="ring" unicode="&#x2da;" 
d="M113 662q0 37 25 62.5t63 25.5t63 -25.5t25 -62.5t-25 -62.5t-63 -25.5t-63 25.5t-25 62.5zM152 662q0 -22 13.5 -36.5t35.5 -14.5t35.5 14.5t13.5 36.5t-13.5 36.5t-35.5 14.5t-35.5 -14.5t-13.5 -36.5z" />
    <glyph glyph-name="ogonek" unicode="&#x2db;" 
d="M96 -140q0 79 144 156l25 -10q-10 -10 -24 -25.5t-37.5 -52.5t-23.5 -60q0 -47 48 -47q24 0 46 10l5 -4q-8 -27 -35 -43t-58 -16q-38 0 -64 23.5t-26 68.5z" />
    <glyph glyph-name="tilde" unicode="&#x2dc;" 
d="M198 701q30 -15 53 -15q24 0 48 24q7 6 12.5 6t8 -7.5t1.5 -20.5q-6 -44 -26 -66.5t-48 -22.5q-25 0 -49 12q-30 15 -53 15q-24 0 -48 -24q-4 -4 -7.5 -5.5t-6.5 0t-5 5t-3 9t0 13.5q6 44 26 66.5t48 22.5q25 0 49 -12z" />
    <glyph glyph-name="hungarumlaut" unicode="&#x2dd;" 
d="M184 575v5q84 47 138 169q24 0 43 -12t27 -24l7 -12q-12 -48 -74.5 -89t-109.5 -41q-22 0 -31 4zM32 571q-22 0 -31 4v5q84 47 138 169q15 0 28.5 -5t22 -12t15 -14t9.5 -12l2 -5q-12 -48 -74.5 -89t-109.5 -41z" />
    <glyph glyph-name="quoteleft" unicode="&#x2018;" horiz-adv-x="262" 
d="M159 659q-31 -38 -37 -74q30 -2 48.5 -24.5t16.5 -52.5q-2 -33 -25 -55.5t-58 -22.5q-36 0 -54.5 21t-18.5 56q0 103 81 175q25 22 45 7q14 -13 2 -30z" />
    <glyph glyph-name="quoteright" unicode="&#x2019;" horiz-adv-x="262" 
d="M103 465q31 38 37 74q-30 2 -48.5 24.5t-16.5 52.5q2 33 25 55.5t58 22.5q36 0 54.5 -21t18.5 -56q0 -103 -81 -175q-25 -22 -45 -7q-14 13 -2 30z" />
    <glyph glyph-name="quotesinglbase" unicode="&#x201a;" horiz-adv-x="288" 
d="M129 -84q31 38 37 74q-30 2 -48.5 24.5t-16.5 52.5q2 33 25 55.5t58 22.5q36 0 54.5 -21t18.5 -56q0 -103 -81 -175q-25 -22 -45 -7q-14 13 -2 30z" />
    <glyph glyph-name="quotedblleft" unicode="&#x201c;" horiz-adv-x="476" 
d="M159 659q-31 -38 -37 -74q30 -2 48.5 -24.5t16.5 -52.5q-2 -33 -25 -55.5t-58 -22.5q-36 0 -54.5 21t-18.5 56q0 103 81 175q25 22 45 7q14 -13 2 -30zM373 659q-31 -38 -37 -74q30 -2 48.5 -24.5t16.5 -52.5q-2 -33 -25 -55.5t-58 -22.5q-36 0 -54.5 21t-18.5 56
q0 103 81 175q25 22 45 7q14 -13 2 -30z" />
    <glyph glyph-name="quotedblright" unicode="&#x201d;" horiz-adv-x="476" 
d="M103 465q31 38 37 74q-30 2 -48.5 24.5t-16.5 52.5q2 33 25 55.5t58 22.5q36 0 54.5 -21t18.5 -56q0 -103 -81 -175q-25 -22 -45 -7q-14 13 -2 30zM317 465q31 38 37 74q-30 2 -48.5 24.5t-16.5 52.5q2 33 25 55.5t58 22.5q36 0 54.5 -21t18.5 -56q0 -103 -81 -175
q-25 -22 -45 -7q-14 13 -2 30z" />
    <glyph glyph-name="quotedblbase" unicode="&#x201e;" horiz-adv-x="502" 
d="M129 -84q31 38 37 74q-30 2 -48.5 24.5t-16.5 52.5q2 33 25 55.5t58 22.5q36 0 54.5 -21t18.5 -56q0 -103 -81 -175q-25 -22 -45 -7q-14 13 -2 30zM343 -84q31 38 37 74q-30 2 -48.5 24.5t-16.5 52.5q2 33 25 55.5t58 22.5q36 0 54.5 -21t18.5 -56q0 -103 -81 -175
q-25 -22 -45 -7q-14 13 -2 30z" />
    <glyph glyph-name="bullet" unicode="&#x2022;" horiz-adv-x="394" 
d="M74 295q0 51 36 87t87 36t87 -36t36 -87t-36 -87t-87 -36t-87 36t-36 87z" />
    <glyph glyph-name="perthousand" unicode="&#x2030;" horiz-adv-x="1509" 
d="M1343 214q0 165 -75 165t-75 -165q0 -164 75 -164t75 164zM1268 440q196 0 196 -226q0 -225 -196 -225q-197 0 -197 225q0 226 197 226zM889 214q0 165 -75 165t-75 -165q0 -164 75 -164t75 164zM814 440q196 0 196 -226q0 -225 -196 -225q-197 0 -197 225q0 226 197 226
zM317 495q0 165 -75 165t-75 -165q0 -164 75 -164t75 164zM242 721q196 0 196 -226q0 -225 -196 -225q-197 0 -197 225q0 226 197 226zM417 -18q-3 -5 -7.5 -20.5t-5.5 -18.5q-8 -20 -39 -5q-20 10 -29.5 28.5t-0.5 40.5q29 70 124.5 296t113.5 269q36 86 66 196
q7 10 24 8.5t28 -7.5q45 -22 29 -60q-292 -700 -303 -727z" />
    <glyph glyph-name="Euro" unicode="&#x20ac;" horiz-adv-x="640" 
d="M254 355q0 -30 1 -44h43q56 -1 114 1q13 2 18 -4.5t4 -26.5q0 -29 -10 -44q-8 -12 -24 -14.5t-51 -2.5q-37 0 -80 3q39 -137 159 -137q75 0 140 48q38 28 44 -16q4 -37 -4.5 -58t-32.5 -34q-67 -37 -167 -37q-110 0 -189 57.5t-107 179.5q-21 -1 -52 -5q-21 -4 -26 3.5
t-2 34.5q3 21 12 38q12 17 56 19q-1 12 -1 38q0 19 1 29q-16 -1 -39 -5q-21 -4 -26 3.5t-3 34.5q3 21 12 38q12 20 68 20q28 123 111 184.5t190 61.5q138 0 182 -66q14 -18 16.5 -44t-5.5 -43q-23 -51 -66 -1q-54 63 -122 63q-121 0 -154 -157h111q75 0 114 3q13 2 18 -4.5
t5 -26.5q0 -29 -10 -44q-12 -18 -74 -18q-14 0 -43 0.5t-69 1.5t-62 1v-30z" />
    <glyph glyph-name="trademark" unicode="&#x2122;" horiz-adv-x="860" 
d="M129 710q43 0 86.5 -0.5t54.5 -0.5q19 0 49.5 1t38.5 1q17 0 23 -5t6 -23q0 -30 -17 -39t-59 -9q-5 0 -22 0.5t-24 0.5q0 -44 -1 -121t-1 -124q0 -3 1.5 -12.5t1.5 -14.5q0 -23 -40 -23q-21 0 -37 12t-16 32q0 17 1 70.5t1 93.5q0 63 -1 89q-34 0 -65.5 -3t-37.5 -3
q-19 0 -19 17q0 39 17.5 50t59.5 11zM417 687q0 23 53 23q41 0 56 -27l9 -18q9 -18 28 -57t37 -78q8 18 23 48t31 61t18 35q18 36 71 36q15 0 21.5 -1t12 -6t5.5 -16q0 -3 -3.5 -53t-3.5 -142q0 -48 3.5 -86.5t3.5 -40.5q0 -24 -42 -24q-22 0 -36.5 12.5t-14.5 36.5
q0 19 0.5 74t0.5 105q-52 -101 -67 -148q-7 -23 -27 -23q-17 0 -29 27q-33 80 -70 147q0 -36 1 -111t1 -86q0 -34 -53 -34q-30 0 -30 21q0 2 1.5 7t1.5 10q0 2 0.5 43t0.5 94v86q0 15 -1.5 47.5t-1.5 37.5z" />
    <glyph glyph-name="commaaccent" unicode="&#xf6c3;" 
d="M161 -93q0 21 15.5 35t39.5 14q31 0 47 -23t16 -56q0 -43 -23.5 -75.5t-68.5 -32.5q-22 0 -39 6.5t-22 12.5l-6 7l4 3q12 -7 25 -7q25 0 41.5 14t16.5 36q0 12 -11.5 19t-23 17t-11.5 30z" />
    <glyph glyph-name="i.alt" horiz-adv-x="259" 
d="M49 488q0 25 75 25q32 0 52 -15.5t20 -46.5v-200q0 -10 -2 -72t-2 -64q0 -41 32 -41q9 0 20.5 5.5t16.5 5.5t10 -4t5 -10q0 -22 -26.5 -46.5t-85.5 -24.5q-42 0 -70.5 22t-28.5 60q0 2 0.5 33t0.5 77.5v86.5q0 61 -4 109t-8.5 72.5t-4.5 27.5zM208 644
q-2 -32 -26.5 -54.5t-56.5 -22.5t-52.5 22.5t-18.5 54.5t26.5 55t56.5 23t53 -23t18 -55zM7 808q20 0 35 -17.5t20 -41.5q1 -6 -1 -10t-5.5 -4.5t-6.5 2.5q-16 16 -42 14q-31 -3 -31 28q0 12 8 20.5t23 8.5zM252 808q15 0 23 -8.5t8 -20.5q0 -31 -31 -28q-26 2 -42 -14
q-3 -3 -6.5 -2.5t-5 4.5t-0.5 10q5 23 20 41t34 18z" />
    <glyph glyph-name="k.alt" horiz-adv-x="545" 
d="M195 84q0 -5 2.5 -27.5t2.5 -30.5q0 -26 -54 -26q-32 0 -57 18.5t-25 50.5v87t0.5 185.5t0.5 140.5q0 61 -4.5 109t-8.5 72.5t-4 27.5q0 25 75 25q32 0 52 -15.5t20 -46.5v-326q35 24 72.5 68t62 79t26.5 36q16 13 61 13q52 0 52 -32q0 -27 -76.5 -96t-112.5 -88
q152 -287 267 -318q17 -4 22 -16t-11 -21q-32 -18 -96 -15q-31 2 -59.5 15.5t-48.5 31t-43.5 50t-37.5 56t-38.5 66.5t-38.5 66q0 -22 -0.5 -78t-0.5 -61zM637 141q0 22 15.5 38.5t35.5 16.5q33 0 52 -21.5t19 -55.5q0 -52 -39.5 -88.5t-88.5 -43.5q-15 -3 -23 2t-7 12.5
t7 12.5q41 29 41 71q0 13 -6 29t-6 27z" />
    </font>
</defs>
</svg>
